<mxfile host="65bd71144e">
    <diagram id="ZrOuFHnyNva_VhoxYvR3" name="Clases">
        <mxGraphModel dx="818" dy="459" grid="1" gridSize="10" guides="1" tooltips="1" connect="1" arrows="1" fold="1" page="1" pageScale="1" pageWidth="827" pageHeight="1169" math="0" shadow="0">
            <root>
                <mxCell id="V36Fl_7t5BoSQpRkXxEx-0"/>
                <mxCell id="V36Fl_7t5BoSQpRkXxEx-1" parent="V36Fl_7t5BoSQpRkXxEx-0"/>
                <mxCell id="V36Fl_7t5BoSQpRkXxEx-6" value="Elementos" style="swimlane;fontStyle=1;align=center;verticalAlign=top;childLayout=stackLayout;horizontal=1;startSize=26;horizontalStack=0;resizeParent=1;resizeParentMax=0;resizeLast=0;collapsible=1;marginBottom=0;" parent="V36Fl_7t5BoSQpRkXxEx-1" vertex="1">
                    <mxGeometry x="200" y="30" width="160" height="242" as="geometry"/>
                </mxCell>
                <mxCell id="V36Fl_7t5BoSQpRkXxEx-7" value="imagen:String" style="text;strokeColor=none;fillColor=none;align=left;verticalAlign=top;spacingLeft=4;spacingRight=4;overflow=hidden;rotatable=0;points=[[0,0.5],[1,0.5]];portConstraint=eastwest;" parent="V36Fl_7t5BoSQpRkXxEx-6" vertex="1">
                    <mxGeometry y="26" width="160" height="26" as="geometry"/>
                </mxCell>
                <mxCell id="cwu8uCDqTccMXaLWMHqZ-1" value="puntoX:Integer" style="text;strokeColor=none;fillColor=none;align=left;verticalAlign=top;spacingLeft=4;spacingRight=4;overflow=hidden;rotatable=0;points=[[0,0.5],[1,0.5]];portConstraint=eastwest;" parent="V36Fl_7t5BoSQpRkXxEx-6" vertex="1">
                    <mxGeometry y="52" width="160" height="26" as="geometry"/>
                </mxCell>
                <mxCell id="cwu8uCDqTccMXaLWMHqZ-2" value="puntoY:Integer" style="text;strokeColor=none;fillColor=none;align=left;verticalAlign=top;spacingLeft=4;spacingRight=4;overflow=hidden;rotatable=0;points=[[0,0.5],[1,0.5]];portConstraint=eastwest;" parent="V36Fl_7t5BoSQpRkXxEx-6" vertex="1">
                    <mxGeometry y="78" width="160" height="26" as="geometry"/>
                </mxCell>
                <mxCell id="EZQYxROYUx1XxVAVl3b2-0" value="ancho:Integer" style="text;strokeColor=none;fillColor=none;align=left;verticalAlign=top;spacingLeft=4;spacingRight=4;overflow=hidden;rotatable=0;points=[[0,0.5],[1,0.5]];portConstraint=eastwest;" parent="V36Fl_7t5BoSQpRkXxEx-6" vertex="1">
                    <mxGeometry y="104" width="160" height="26" as="geometry"/>
                </mxCell>
                <mxCell id="EZQYxROYUx1XxVAVl3b2-1" value="largo:Integer" style="text;strokeColor=none;fillColor=none;align=left;verticalAlign=top;spacingLeft=4;spacingRight=4;overflow=hidden;rotatable=0;points=[[0,0.5],[1,0.5]];portConstraint=eastwest;" parent="V36Fl_7t5BoSQpRkXxEx-6" vertex="1">
                    <mxGeometry y="130" width="160" height="26" as="geometry"/>
                </mxCell>
                <mxCell id="xaOacZffQL1iKG-RRtSR-0" value="orientecion:" style="text;strokeColor=none;fillColor=none;align=left;verticalAlign=top;spacingLeft=4;spacingRight=4;overflow=hidden;rotatable=0;points=[[0,0.5],[1,0.5]];portConstraint=eastwest;" parent="V36Fl_7t5BoSQpRkXxEx-6" vertex="1">
                    <mxGeometry y="156" width="160" height="26" as="geometry"/>
                </mxCell>
                <mxCell id="V36Fl_7t5BoSQpRkXxEx-8" value="" style="line;strokeWidth=1;fillColor=none;align=left;verticalAlign=middle;spacingTop=-1;spacingLeft=3;spacingRight=3;rotatable=0;labelPosition=right;points=[];portConstraint=eastwest;" parent="V36Fl_7t5BoSQpRkXxEx-6" vertex="1">
                    <mxGeometry y="182" width="160" height="8" as="geometry"/>
                </mxCell>
                <mxCell id="C1ooCi5jXhjwkzMho96Q-0" value="destruir()" style="text;strokeColor=none;fillColor=none;align=left;verticalAlign=top;spacingLeft=4;spacingRight=4;overflow=hidden;rotatable=0;points=[[0,0.5],[1,0.5]];portConstraint=eastwest;" parent="V36Fl_7t5BoSQpRkXxEx-6" vertex="1">
                    <mxGeometry y="190" width="160" height="26" as="geometry"/>
                </mxCell>
                <mxCell id="CRjOq7AT7VfBoRo0N_25-8" value="crear()" style="text;strokeColor=none;fillColor=none;align=left;verticalAlign=top;spacingLeft=4;spacingRight=4;overflow=hidden;rotatable=0;points=[[0,0.5],[1,0.5]];portConstraint=eastwest;" parent="V36Fl_7t5BoSQpRkXxEx-6" vertex="1">
                    <mxGeometry y="216" width="160" height="26" as="geometry"/>
                </mxCell>
                <mxCell id="x_nWtLO86UCcQNOkHPUE-12" value="Escenario" style="swimlane;fontStyle=1;align=center;verticalAlign=top;childLayout=stackLayout;horizontal=1;startSize=26;horizontalStack=0;resizeParent=1;resizeParentMax=0;resizeLast=0;collapsible=1;marginBottom=0;" parent="V36Fl_7t5BoSQpRkXxEx-1" vertex="1">
                    <mxGeometry x="640" y="333" width="160" height="86" as="geometry"/>
                </mxCell>
                <mxCell id="x_nWtLO86UCcQNOkHPUE-14" value="" style="line;strokeWidth=1;fillColor=none;align=left;verticalAlign=middle;spacingTop=-1;spacingLeft=3;spacingRight=3;rotatable=0;labelPosition=right;points=[];portConstraint=eastwest;" parent="x_nWtLO86UCcQNOkHPUE-12" vertex="1">
                    <mxGeometry y="26" width="160" height="8" as="geometry"/>
                </mxCell>
                <mxCell id="CRjOq7AT7VfBoRo0N_25-11" value="movimietos(y)" style="text;strokeColor=none;fillColor=none;align=left;verticalAlign=top;spacingLeft=4;spacingRight=4;overflow=hidden;rotatable=0;points=[[0,0.5],[1,0.5]];portConstraint=eastwest;" parent="x_nWtLO86UCcQNOkHPUE-12" vertex="1">
                    <mxGeometry y="34" width="160" height="26" as="geometry"/>
                </mxCell>
                <mxCell id="CRjOq7AT7VfBoRo0N_25-12" value="cambioFondo()" style="text;strokeColor=none;fillColor=none;align=left;verticalAlign=top;spacingLeft=4;spacingRight=4;overflow=hidden;rotatable=0;points=[[0,0.5],[1,0.5]];portConstraint=eastwest;" parent="x_nWtLO86UCcQNOkHPUE-12" vertex="1">
                    <mxGeometry y="60" width="160" height="26" as="geometry"/>
                </mxCell>
                <mxCell id="zHb_CQ8l-w0fYu-gBW_K-0" value="Jugador" style="swimlane;fontStyle=1;align=center;verticalAlign=top;childLayout=stackLayout;horizontal=1;startSize=26;horizontalStack=0;resizeParent=1;resizeParentMax=0;resizeLast=0;collapsible=1;marginBottom=0;" parent="V36Fl_7t5BoSQpRkXxEx-1" vertex="1">
                    <mxGeometry x="10" y="585" width="160" height="164" as="geometry"/>
                </mxCell>
                <mxCell id="cCjejDgWNdFz6iWcIvMe-1" value="bontonDerecha:" style="text;strokeColor=none;fillColor=none;align=left;verticalAlign=top;spacingLeft=4;spacingRight=4;overflow=hidden;rotatable=0;points=[[0,0.5],[1,0.5]];portConstraint=eastwest;" parent="zHb_CQ8l-w0fYu-gBW_K-0" vertex="1">
                    <mxGeometry y="26" width="160" height="26" as="geometry"/>
                </mxCell>
                <mxCell id="cCjejDgWNdFz6iWcIvMe-8" value="botonIzquierda:" style="text;strokeColor=none;fillColor=none;align=left;verticalAlign=top;spacingLeft=4;spacingRight=4;overflow=hidden;rotatable=0;points=[[0,0.5],[1,0.5]];portConstraint=eastwest;" parent="zHb_CQ8l-w0fYu-gBW_K-0" vertex="1">
                    <mxGeometry y="52" width="160" height="26" as="geometry"/>
                </mxCell>
                <mxCell id="cCjejDgWNdFz6iWcIvMe-6" value="botonDisparo" style="text;strokeColor=none;fillColor=none;align=left;verticalAlign=top;spacingLeft=4;spacingRight=4;overflow=hidden;rotatable=0;points=[[0,0.5],[1,0.5]];portConstraint=eastwest;" parent="zHb_CQ8l-w0fYu-gBW_K-0" vertex="1">
                    <mxGeometry y="78" width="160" height="26" as="geometry"/>
                </mxCell>
                <mxCell id="cCjejDgWNdFz6iWcIvMe-7" value="movimietos(x)" style="text;strokeColor=none;fillColor=none;align=left;verticalAlign=top;spacingLeft=4;spacingRight=4;overflow=hidden;rotatable=0;points=[[0,0.5],[1,0.5]];portConstraint=eastwest;" parent="zHb_CQ8l-w0fYu-gBW_K-0" vertex="1">
                    <mxGeometry y="104" width="160" height="26" as="geometry"/>
                </mxCell>
                <mxCell id="zHb_CQ8l-w0fYu-gBW_K-2" value="" style="line;strokeWidth=1;fillColor=none;align=left;verticalAlign=middle;spacingTop=-1;spacingLeft=3;spacingRight=3;rotatable=0;labelPosition=right;points=[];portConstraint=eastwest;" parent="zHb_CQ8l-w0fYu-gBW_K-0" vertex="1">
                    <mxGeometry y="130" width="160" height="8" as="geometry"/>
                </mxCell>
                <mxCell id="zHb_CQ8l-w0fYu-gBW_K-3" value="movimietos(x)" style="text;strokeColor=none;fillColor=none;align=left;verticalAlign=top;spacingLeft=4;spacingRight=4;overflow=hidden;rotatable=0;points=[[0,0.5],[1,0.5]];portConstraint=eastwest;" parent="zHb_CQ8l-w0fYu-gBW_K-0" vertex="1">
                    <mxGeometry y="138" width="160" height="26" as="geometry"/>
                </mxCell>
                <mxCell id="zHb_CQ8l-w0fYu-gBW_K-5" value="Enemigo" style="swimlane;fontStyle=1;align=center;verticalAlign=top;childLayout=stackLayout;horizontal=1;startSize=26;horizontalStack=0;resizeParent=1;resizeParentMax=0;resizeLast=0;collapsible=1;marginBottom=0;" parent="V36Fl_7t5BoSQpRkXxEx-1" vertex="1">
                    <mxGeometry x="320" y="585" width="160" height="86" as="geometry"/>
                </mxCell>
                <mxCell id="zHb_CQ8l-w0fYu-gBW_K-7" value="" style="line;strokeWidth=1;fillColor=none;align=left;verticalAlign=middle;spacingTop=-1;spacingLeft=3;spacingRight=3;rotatable=0;labelPosition=right;points=[];portConstraint=eastwest;" parent="zHb_CQ8l-w0fYu-gBW_K-5" vertex="1">
                    <mxGeometry y="26" width="160" height="8" as="geometry"/>
                </mxCell>
                <mxCell id="zHb_CQ8l-w0fYu-gBW_K-8" value="movimientos(x,y)" style="text;strokeColor=none;fillColor=none;align=left;verticalAlign=top;spacingLeft=4;spacingRight=4;overflow=hidden;rotatable=0;points=[[0,0.5],[1,0.5]];portConstraint=eastwest;" parent="zHb_CQ8l-w0fYu-gBW_K-5" vertex="1">
                    <mxGeometry y="34" width="160" height="26" as="geometry"/>
                </mxCell>
                <mxCell id="cCjejDgWNdFz6iWcIvMe-0" value="inteligeciaArtifical()" style="text;strokeColor=none;fillColor=none;align=left;verticalAlign=top;spacingLeft=4;spacingRight=4;overflow=hidden;rotatable=0;points=[[0,0.5],[1,0.5]];portConstraint=eastwest;" parent="zHb_CQ8l-w0fYu-gBW_K-5" vertex="1">
                    <mxGeometry y="60" width="160" height="26" as="geometry"/>
                </mxCell>
                <mxCell id="904tEi3ePs51fGLW5GKu-0" value="" style="endArrow=block;startArrow=block;endFill=1;startFill=1;html=1;entryX=0;entryY=0.5;entryDx=0;entryDy=0;exitX=1;exitY=0.25;exitDx=0;exitDy=0;" parent="V36Fl_7t5BoSQpRkXxEx-1" source="zHb_CQ8l-w0fYu-gBW_K-0" target="zHb_CQ8l-w0fYu-gBW_K-5" edge="1">
                    <mxGeometry width="160" relative="1" as="geometry">
                        <mxPoint x="200" y="380" as="sourcePoint"/>
                        <mxPoint x="360" y="380" as="targetPoint"/>
                    </mxGeometry>
                </mxCell>
                <mxCell id="904tEi3ePs51fGLW5GKu-1" value="destruirse" style="edgeLabel;html=1;align=center;verticalAlign=middle;resizable=0;points=[];" parent="904tEi3ePs51fGLW5GKu-0" vertex="1" connectable="0">
                    <mxGeometry x="-0.2" y="-3" relative="1" as="geometry">
                        <mxPoint x="12" y="17" as="offset"/>
                    </mxGeometry>
                </mxCell>
                <mxCell id="904tEi3ePs51fGLW5GKu-3" value="1" style="edgeLabel;html=1;align=center;verticalAlign=middle;resizable=0;points=[];" parent="904tEi3ePs51fGLW5GKu-0" vertex="1" connectable="0">
                    <mxGeometry x="-0.7765" y="4" relative="1" as="geometry">
                        <mxPoint y="-6" as="offset"/>
                    </mxGeometry>
                </mxCell>
                <mxCell id="904tEi3ePs51fGLW5GKu-4" value="1...*" style="edgeLabel;html=1;align=center;verticalAlign=middle;resizable=0;points=[];" parent="904tEi3ePs51fGLW5GKu-0" vertex="1" connectable="0">
                    <mxGeometry x="0.7882" y="3" relative="1" as="geometry">
                        <mxPoint x="-12" y="-7" as="offset"/>
                    </mxGeometry>
                </mxCell>
                <mxCell id="tg85jV0uwHNv8NquED7v-12" value="Nave" style="swimlane;fontStyle=1;align=center;verticalAlign=top;childLayout=stackLayout;horizontal=1;startSize=26;horizontalStack=0;resizeParent=1;resizeParentMax=0;resizeLast=0;collapsible=1;marginBottom=0;" parent="V36Fl_7t5BoSQpRkXxEx-1" vertex="1">
                    <mxGeometry x="30" y="320" width="160" height="60" as="geometry"/>
                </mxCell>
                <mxCell id="tg85jV0uwHNv8NquED7v-14" value="" style="line;strokeWidth=1;fillColor=none;align=left;verticalAlign=middle;spacingTop=-1;spacingLeft=3;spacingRight=3;rotatable=0;labelPosition=right;points=[];portConstraint=eastwest;" parent="tg85jV0uwHNv8NquED7v-12" vertex="1">
                    <mxGeometry y="26" width="160" height="8" as="geometry"/>
                </mxCell>
                <mxCell id="pnp9dDVxjcg8KDeF4WD2-0" value="disparar()" style="text;strokeColor=none;fillColor=none;align=left;verticalAlign=top;spacingLeft=4;spacingRight=4;overflow=hidden;rotatable=0;points=[[0,0.5],[1,0.5]];portConstraint=eastwest;" parent="tg85jV0uwHNv8NquED7v-12" vertex="1">
                    <mxGeometry y="34" width="160" height="26" as="geometry"/>
                </mxCell>
                <mxCell id="tg85jV0uwHNv8NquED7v-16" value="" style="endArrow=block;endSize=16;endFill=0;html=1;entryX=0.5;entryY=0;entryDx=0;entryDy=0;exitX=0.175;exitY=1.077;exitDx=0;exitDy=0;exitPerimeter=0;" parent="V36Fl_7t5BoSQpRkXxEx-1" source="CRjOq7AT7VfBoRo0N_25-8" target="tg85jV0uwHNv8NquED7v-12" edge="1">
                    <mxGeometry x="-0.1311" y="8" width="160" relative="1" as="geometry">
                        <mxPoint x="90" y="210" as="sourcePoint"/>
                        <mxPoint x="410" y="400" as="targetPoint"/>
                        <mxPoint as="offset"/>
                    </mxGeometry>
                </mxCell>
                <mxCell id="tg85jV0uwHNv8NquED7v-17" value="" style="endArrow=block;endSize=16;endFill=0;html=1;entryX=0.5;entryY=0;entryDx=0;entryDy=0;" parent="V36Fl_7t5BoSQpRkXxEx-1" source="pnp9dDVxjcg8KDeF4WD2-0" target="zHb_CQ8l-w0fYu-gBW_K-0" edge="1">
                    <mxGeometry width="160" relative="1" as="geometry">
                        <mxPoint x="100" y="406" as="sourcePoint"/>
                        <mxPoint x="260" y="406" as="targetPoint"/>
                    </mxGeometry>
                </mxCell>
                <mxCell id="tg85jV0uwHNv8NquED7v-20" value="" style="endArrow=block;endSize=16;endFill=0;html=1;exitX=1;exitY=0.5;exitDx=0;exitDy=0;entryX=0.5;entryY=0;entryDx=0;entryDy=0;" parent="V36Fl_7t5BoSQpRkXxEx-1" source="pnp9dDVxjcg8KDeF4WD2-0" target="zHb_CQ8l-w0fYu-gBW_K-5" edge="1">
                    <mxGeometry width="160" relative="1" as="geometry">
                        <mxPoint x="250" y="500" as="sourcePoint"/>
                        <mxPoint x="410" y="500" as="targetPoint"/>
                        <Array as="points">
                            <mxPoint x="390" y="430"/>
                        </Array>
                    </mxGeometry>
                </mxCell>
                <mxCell id="tg85jV0uwHNv8NquED7v-27" value="Misil" style="swimlane;fontStyle=1;align=center;verticalAlign=top;childLayout=stackLayout;horizontal=1;startSize=26;horizontalStack=0;resizeParent=1;resizeParentMax=0;resizeLast=0;collapsible=1;marginBottom=0;" parent="V36Fl_7t5BoSQpRkXxEx-1" vertex="1">
                    <mxGeometry x="400" y="333" width="160" height="60" as="geometry"/>
                </mxCell>
                <mxCell id="tg85jV0uwHNv8NquED7v-28" value="" style="line;strokeWidth=1;fillColor=none;align=left;verticalAlign=middle;spacingTop=-1;spacingLeft=3;spacingRight=3;rotatable=0;labelPosition=right;points=[];portConstraint=eastwest;" parent="tg85jV0uwHNv8NquED7v-27" vertex="1">
                    <mxGeometry y="26" width="160" height="8" as="geometry"/>
                </mxCell>
                <mxCell id="CRjOq7AT7VfBoRo0N_25-0" value="movimietos(y)" style="text;strokeColor=none;fillColor=none;align=left;verticalAlign=top;spacingLeft=4;spacingRight=4;overflow=hidden;rotatable=0;points=[[0,0.5],[1,0.5]];portConstraint=eastwest;" parent="tg85jV0uwHNv8NquED7v-27" vertex="1">
                    <mxGeometry y="34" width="160" height="26" as="geometry"/>
                </mxCell>
                <mxCell id="CRjOq7AT7VfBoRo0N_25-2" value="" style="endArrow=block;endSize=16;endFill=0;html=1;entryX=0.331;entryY=0;entryDx=0;entryDy=0;entryPerimeter=0;exitX=0.756;exitY=1;exitDx=0;exitDy=0;exitPerimeter=0;" parent="V36Fl_7t5BoSQpRkXxEx-1" source="CRjOq7AT7VfBoRo0N_25-8" target="tg85jV0uwHNv8NquED7v-27" edge="1">
                    <mxGeometry width="160" relative="1" as="geometry">
                        <mxPoint x="280" y="250" as="sourcePoint"/>
                        <mxPoint x="410" y="350" as="targetPoint"/>
                    </mxGeometry>
                </mxCell>
                <mxCell id="CRjOq7AT7VfBoRo0N_25-3" value="" style="endArrow=open;endFill=1;endSize=12;html=1;exitX=0.994;exitY=0.192;exitDx=0;exitDy=0;entryX=0;entryY=0.5;entryDx=0;entryDy=0;exitPerimeter=0;" parent="V36Fl_7t5BoSQpRkXxEx-1" source="pnp9dDVxjcg8KDeF4WD2-0" target="tg85jV0uwHNv8NquED7v-27" edge="1">
                    <mxGeometry width="160" relative="1" as="geometry">
                        <mxPoint x="250" y="350" as="sourcePoint"/>
                        <mxPoint x="390" y="350" as="targetPoint"/>
                    </mxGeometry>
                </mxCell>
                <mxCell id="CRjOq7AT7VfBoRo0N_25-4" value="disparar&lt;br&gt;" style="edgeLabel;html=1;align=center;verticalAlign=middle;resizable=0;points=[];" parent="CRjOq7AT7VfBoRo0N_25-3" vertex="1" connectable="0">
                    <mxGeometry x="-0.4575" y="-2" relative="1" as="geometry">
                        <mxPoint x="43" y="-18" as="offset"/>
                    </mxGeometry>
                </mxCell>
                <mxCell id="CRjOq7AT7VfBoRo0N_25-5" value="1" style="edgeLabel;html=1;align=center;verticalAlign=middle;resizable=0;points=[];" parent="CRjOq7AT7VfBoRo0N_25-3" vertex="1" connectable="0">
                    <mxGeometry x="-0.7422" y="3" relative="1" as="geometry">
                        <mxPoint x="-7" y="-13" as="offset"/>
                    </mxGeometry>
                </mxCell>
                <mxCell id="CRjOq7AT7VfBoRo0N_25-6" value="1..*" style="edgeLabel;html=1;align=center;verticalAlign=middle;resizable=0;points=[];" parent="CRjOq7AT7VfBoRo0N_25-3" vertex="1" connectable="0">
                    <mxGeometry x="0.838" y="-1" relative="1" as="geometry">
                        <mxPoint x="-13" y="-14" as="offset"/>
                    </mxGeometry>
                </mxCell>
                <mxCell id="CRjOq7AT7VfBoRo0N_25-7" value="" style="html=1;verticalAlign=bottom;endArrow=open;dashed=1;endSize=8;" parent="V36Fl_7t5BoSQpRkXxEx-1" target="CRjOq7AT7VfBoRo0N_25-0" edge="1">
                    <mxGeometry relative="1" as="geometry">
                        <mxPoint x="250" y="630" as="sourcePoint"/>
                        <mxPoint x="200" y="520" as="targetPoint"/>
                        <Array as="points">
                            <mxPoint x="240" y="440"/>
                            <mxPoint x="480" y="440"/>
                        </Array>
                    </mxGeometry>
                </mxCell>
                <mxCell id="CRjOq7AT7VfBoRo0N_25-10" value="" style="endArrow=block;endSize=16;endFill=0;html=1;exitX=1;exitY=0.5;exitDx=0;exitDy=0;" parent="V36Fl_7t5BoSQpRkXxEx-1" source="xaOacZffQL1iKG-RRtSR-0" edge="1">
                    <mxGeometry width="160" relative="1" as="geometry">
                        <mxPoint x="330.96000000000004" y="282" as="sourcePoint"/>
                        <mxPoint x="710" y="330" as="targetPoint"/>
                        <Array as="points">
                            <mxPoint x="710" y="199"/>
                        </Array>
                    </mxGeometry>
                </mxCell>
            </root>
        </mxGraphModel>
    </diagram>
    <diagram id="NlLWp2ukm3Ko3xgZIR8N" name="JuegosYDescripcion">
        <mxGraphModel dx="788" dy="459" grid="1" gridSize="10" guides="1" tooltips="1" connect="1" arrows="1" fold="1" page="1" pageScale="1" pageWidth="827" pageHeight="1169" math="0" shadow="0">
            <root>
                <mxCell id="Fnwi7rrgEe6EeBz4-D5B-0"/>
                <mxCell id="Fnwi7rrgEe6EeBz4-D5B-1" parent="Fnwi7rrgEe6EeBz4-D5B-0"/>
                <mxCell id="jjHL3YGOdBMwS9SVDfsP-0" value="" style="rounded=0;whiteSpace=wrap;html=1;" parent="Fnwi7rrgEe6EeBz4-D5B-1" vertex="1">
                    <mxGeometry x="200" y="90" width="410" height="520" as="geometry"/>
                </mxCell>
                <mxCell id="jjHL3YGOdBMwS9SVDfsP-1" value="" style="endArrow=classic;html=1;" parent="Fnwi7rrgEe6EeBz4-D5B-1" edge="1">
                    <mxGeometry width="50" height="50" relative="1" as="geometry">
                        <mxPoint x="160" y="20" as="sourcePoint"/>
                        <mxPoint x="160" y="620" as="targetPoint"/>
                    </mxGeometry>
                </mxCell>
                <mxCell id="jjHL3YGOdBMwS9SVDfsP-2" value="" style="endArrow=classic;html=1;" parent="Fnwi7rrgEe6EeBz4-D5B-1" edge="1">
                    <mxGeometry width="50" height="50" relative="1" as="geometry">
                        <mxPoint x="120" y="44.5" as="sourcePoint"/>
                        <mxPoint x="630" y="44.5" as="targetPoint"/>
                    </mxGeometry>
                </mxCell>
                <mxCell id="OLQPWJ2s2xaGam4pMC5Q-0" value="X" style="text;align=center;fontStyle=1;verticalAlign=middle;spacingLeft=3;spacingRight=3;strokeColor=none;rotatable=0;points=[[0,0.5],[1,0.5]];portConstraint=eastwest;" parent="Fnwi7rrgEe6EeBz4-D5B-1" vertex="1">
                    <mxGeometry x="330" y="10" width="80" height="26" as="geometry"/>
                </mxCell>
                <mxCell id="OLQPWJ2s2xaGam4pMC5Q-1" value="Y" style="text;align=center;fontStyle=1;verticalAlign=middle;spacingLeft=3;spacingRight=3;strokeColor=none;rotatable=0;points=[[0,0.5],[1,0.5]];portConstraint=eastwest;" parent="Fnwi7rrgEe6EeBz4-D5B-1" vertex="1">
                    <mxGeometry x="70" y="180" width="80" height="26" as="geometry"/>
                </mxCell>
                <mxCell id="OLQPWJ2s2xaGam4pMC5Q-3" value="10" style="text;html=1;strokeColor=none;fillColor=none;align=center;verticalAlign=middle;whiteSpace=wrap;rounded=0;" parent="Fnwi7rrgEe6EeBz4-D5B-1" vertex="1">
                    <mxGeometry x="240" y="10" width="60" height="30" as="geometry"/>
                </mxCell>
                <mxCell id="OLQPWJ2s2xaGam4pMC5Q-4" value="" style="endArrow=none;dashed=1;html=1;" parent="Fnwi7rrgEe6EeBz4-D5B-1" edge="1">
                    <mxGeometry width="50" height="50" relative="1" as="geometry">
                        <mxPoint x="100" y="100" as="sourcePoint"/>
                        <mxPoint x="180" y="100" as="targetPoint"/>
                        <Array as="points">
                            <mxPoint x="130" y="100"/>
                        </Array>
                    </mxGeometry>
                </mxCell>
                <mxCell id="OLQPWJ2s2xaGam4pMC5Q-5" value="" style="endArrow=none;dashed=1;html=1;dashPattern=1 3;strokeWidth=2;" parent="Fnwi7rrgEe6EeBz4-D5B-1" edge="1">
                    <mxGeometry width="50" height="50" relative="1" as="geometry">
                        <mxPoint x="240" y="50" as="sourcePoint"/>
                        <mxPoint x="240" y="10" as="targetPoint"/>
                    </mxGeometry>
                </mxCell>
                <mxCell id="OLQPWJ2s2xaGam4pMC5Q-6" value="10" style="text;html=1;strokeColor=none;fillColor=none;align=center;verticalAlign=middle;whiteSpace=wrap;rounded=0;" parent="Fnwi7rrgEe6EeBz4-D5B-1" vertex="1">
                    <mxGeometry x="90" y="100" width="60" height="30" as="geometry"/>
                </mxCell>
                <mxCell id="OLQPWJ2s2xaGam4pMC5Q-7" value="0" style="text;html=1;strokeColor=none;fillColor=none;align=center;verticalAlign=middle;whiteSpace=wrap;rounded=0;" parent="Fnwi7rrgEe6EeBz4-D5B-1" vertex="1">
                    <mxGeometry x="70" y="30" width="60" height="30" as="geometry"/>
                </mxCell>
                <mxCell id="OLQPWJ2s2xaGam4pMC5Q-8" value="600" style="text;html=1;strokeColor=none;fillColor=none;align=center;verticalAlign=middle;whiteSpace=wrap;rounded=0;" parent="Fnwi7rrgEe6EeBz4-D5B-1" vertex="1">
                    <mxGeometry x="70" y="540" width="60" height="30" as="geometry"/>
                </mxCell>
                <mxCell id="OLQPWJ2s2xaGam4pMC5Q-9" value="0" style="text;html=1;strokeColor=none;fillColor=none;align=center;verticalAlign=middle;whiteSpace=wrap;rounded=0;" parent="Fnwi7rrgEe6EeBz4-D5B-1" vertex="1">
                    <mxGeometry x="160" width="60" height="30" as="geometry"/>
                </mxCell>
                <mxCell id="OLQPWJ2s2xaGam4pMC5Q-10" value="400" style="text;html=1;strokeColor=none;fillColor=none;align=center;verticalAlign=middle;whiteSpace=wrap;rounded=0;" parent="Fnwi7rrgEe6EeBz4-D5B-1" vertex="1">
                    <mxGeometry x="590" width="60" height="30" as="geometry"/>
                </mxCell>
                <mxCell id="RAOiuiP6I7wa7GFSKsO7-0" value="" style="shape=image;verticalLabelPosition=bottom;labelBackgroundColor=#ffffff;verticalAlign=top;aspect=fixed;imageAspect=0;image=data:image/png,iVBORw0KGgoAAAANSUhEUgAAAp0AAAKpCAYAAAD+PpeFAAAABHNCSVQICAgIfAhkiAAAIABJREFUeF7t3L+OZMd1B2COtRnJhIaCGYuBAHE6c0Ll3HkAPwADpXoBJZtstAlfQXBoEmJsMt9h4owPMEMDDGjsEpBFwKCWAAEJbTYlWcayWdV/6t46depTxrm3q875zt3uH66AeuUV/yNAgAABAgQIECCwsMDFwutbngABAscIbI+5OfC9vlsDD0dpBAj0EfiHPtvalQABAgQIECBAYCYBoXOmaeuVAAECBAgQINBJQOjsBG9bAgQIECBAgMBMAkLnTNPWKwECBAgQIECgk4DQ2QnetgQIECBAgACBmQSEzpmmrVcCBAgQIECAQCcBobMTvG0JECBAgAABAjMJCJ0zTVuvBAgQIECAAIFOAg867WtbAgQIHC2w3cY4O/7iwtnvRw/PBwgQmF7Am87pHwEABAgQIECAAIHlBYTO5Y3tQIAAAQIECBCYXkDonP4RAECAAAECBAgQWF5A6Fze2A4ECBAgQIAAgekFhM7pHwEABAgQIECAAIHlBYTO5Y3tQIAAAQIECBCYXkDonP4RAECAAAECBAgQWF7AYXPLG9uBAIHDBYoHcUY5p/P29rbY0c3NTfH6dxd999aEXCdAIJ2AN53pRqohAgQIECBAgEA8AaEz3kxURIAAAQIECBBIJyB0phuphggQIECAAAEC8QSEzngzUREBAgQIECBAIJ2A0JlupBoiQIAAAQIECMQTEDrjzURFBAgQIECAAIF0AkJnupFqiAABAgQIECAQT+BBvJJURIAAgbEF7u7uig1sNpvieaR//bCzPIuKLhIgMJqAN52jTUy9BAgQIECAAIEBBYTOAYemZAIECBAgQIDAaAJC52gTUy8BAgQIECBAYEABoXPAoSmZAAECBAgQIDCagNA52sTUS4AAAQIECBAYUEDoHHBoSiZAgAABAgQIjCYgdI42MfUSIECAAAECBAYUEDoHHJqSCRAgQIAAAQKjCQido01MvQQIECBAgACBAQWEzgGHpmQCBAgQIECAwGgCQudoE1MvAQIECBAgQGBAAaFzwKEpmQABAgQIECAwmoDQOdrE1EuAAAECBAgQGFBA6BxwaEomQIAAAQIECIwmIHSONjH1EiBAgAABAgQGFBA6BxyakgkQIECAAAECowkInaNNTL0ECBAgQIAAgQEFhM4Bh6ZkAgQIECBAgMBoAkLnaBNTLwECBAgQIEBgQAGhc8ChKZkAAQIECBAgMJqA0DnaxNRLgAABAgQIEBhQQOgccGhKJkCAAAECBAiMJiB0jjYx9RIgQIAAAQIEBhQQOgccmpIJECBAgAABAqMJCJ2jTUy9BAgQIECAAIEBBYTOAYemZAIECBAgQIDAaAJC52gTUy8BAgQIECBAYEABoXPAoSmZAAECBAgQIDCagNA52sTUS4AAAQIECBAYUEDoHHBoSiZAgAABAgQIjCYgdI42MfUSIECAAAECBAYUEDoHHJqSCRAgQIAAAQKjCQido01MvQQIECBAgACBAQWEzgGHpmQCBAgQIECAwGgCQudoE1MvAQIECBAgQGBAAaFzwKEpmQABAgQIECAwmoDQOdrE1EuAAAECBAgQGFBA6BxwaEomQIAAAQIECIwmIHSONjH1EiBAgAABAgQGFBA6BxyakgkQIECAAAECowkInaNNTL0ECBAgQIAAgQEFHgxYs5IJEFhGYLvMslY9UaA2j4sT1/UxAgQIdBHwprMLu00JECBAgAABAnMJCJ1zzVu3BAgQIECAAIEuAkJnF3abEiBAgAABAgTmEhA655q3bgkQIECAAAECXQSEzi7sNiVAgAABAgQIzCUgdM41b90SIECAAAECBLoICJ1d2G1KgAABAgQIEJhLwDmdc81btwROFthua8dGnrx0ug9eX18XezrE8vb2trjGzc1NbSDO8SwKukiAwNoC3nSuLW4/AgQIECBAgMCEAkLnhEPXMgECBAgQIEBgbQGhc21x+xEgQIAAAQIEJhQQOiccupYJECBAgAABAmsLCJ1ri9uPAAECBAgQIDChgNA54dC1TIAAAQIECBBYW0DoXFvcfgQIECBAgACBCQWEzgmHrmUCBAgQIECAwNoCDodfW9x+BAgQaCBwd3dXXGWz2dQOj9993gHyRUUXCRBoKeBNZ0tNaxEgQIAAAQIECOwVEDr3svgjAQIECBAgQIBASwGhs6WmtQgQIECAAAECBPYKCJ17WfyRAAECBAgQIECgpYDQ2VLTWgQIECBAgAABAnsFhM69LP5IgAABAgQIECDQUkDobKlpLQIECBAgQIAAgb0Czuncy+KPBAgQGFugdo7nrrsDzvJ0jufYj4HqCYQS8KYz1DgUQ4AAAQIECBDIKSB05pyrrggQIECAAAECoQSEzlDjUAwBAgQIECBAIKeA0JlzrroiQIAAAQIECIQSEDpDjUMxBAgQIECAAIGcAkJnzrnqigABAgQIECAQSkDoDDUOxRAgQIAAAQIEcgoInTnnqisCBAgQIECAQCgBoTPUOBRDgAABAgQIEMgpIHTmnKuuCBAgQIAAAQKhBITOUONQDAECBAgQIEAgp4DQmXOuuiJAgAABAgQIhBIQOkONQzEECBAgQIAAgZwCQmfOueqKAAECBAgQIBBKQOgMNQ7FECBAgAABAgRyCgidOeeqKwIECBAgQIBAKAGhM9Q4FEOAAAECBAgQyCkgdOacq64IECBAgAABAqEEhM5Q41AMAQIECBAgQCCngNCZc666IkCAAAECBAiEEhA6Q41DMQQIECBAgACBnAJCZ8656ooAAQIECBAgEEpA6Aw1DsUQIECAAAECBHIKCJ0556orAgQIECBAgEAoAaEz1DgUQ4AAAQIECBDIKSB05pyrrggQIECAAAECoQSEzlDjUAwBAgQIECBAIKeA0JlzrroiQIAAAQIECIQSEDpDjUMxBAgQIECAAIGcAkJnzrnqigABAgQIECAQSkDoDDUOxRAgQIAAAQIEcgoInTnnqisCBAgQIECAQCgBoTPUOBRDgAABAgQIEMgpIHTmnKuuCBAgQIAAAQKhBITOUONQDAECBAgQIEAgp4DQmXOuuiJAgAABAgQIhBIQOkONQzEECBAgQIAAgZwCQmfOueqKAAECBAgQIBBKQOgMNQ7FECBAgAABAgRyCgidOeeqKwIECBAgQIBAKAGhM9Q4FEOAAAECBAgQyCkgdOacq64IECBAgAABAqEEhM5Q41AMAQIECBAgQCCngNCZc666IkCAAAECBAiEEhA6Q41DMQQIECBAgACBnAJCZ8656ooAAQIECBAgEEpA6Aw1DsUQIECAAAECBHIKCJ0556orAgQIECBAgEAoAaEz1DgUQ4AAAQIECBDIKSB05pyrrggQIECAAAECoQSEzlDjUAwBAgQIECBAIKeA0JlzrroiQIAAAQIECIQSEDpDjUMxBAgQIECAAIGcAkJnzrnqigABAgQIECAQSkDoDDUOxRAgQIAAAQIEcgoInTnnqisCBAgQIECAQCgBoTPUOBRDgAABAgQIEMgpIHTmnKuuCBAgQIAAAQKhBITOUONQDAECBAgQIEAgp4DQmXOuuiJAgAABAgQIhBIQOkONQzEECBAgQIAAgZwCQmfOueqKAAECBAgQIBBKQOgMNQ7FECBAgAABAgRyCgidOeeqKwIECBAgQIBAKAGhM9Q4FEOAAAECBAgQyCkgdOacq64IECBAgAABAqEEhM5Q41AMAQIECBAgQCCngNCZc666IkCAAAECBAiEEhA6Q41DMQQIECBAgACBnAJCZ8656ooAAQIECBAgEEpA6Aw1DsUQIECAAAECBHIKCJ0556orAgQIECBAgEAoAaEz1DgUQ4AAAQIECBDIKSB05pyrrggQIECAAAECoQQehKpGMbMJbAdo+GKAGpVIILPACN8TO3/fFZmfQr01EfCmswmjRQgQIECAAAECBEoCQmdJxzUCBAgQIECAAIEmAkJnE0aLECBAgAABAgQIlASEzpKOawQIECBAgAABAk0EhM4mjBYhQIAAAQIECBAoCQidJR3XCBAgQIAAAQIEmggInU0YLUKAAAECBAgQIFAScE5nSce1rgLbbf/j+S4uLg4pwvl8XZ8Um88uMMh3he+J2R9U/b/iTaeHgAABAgQIECBAYHEBoXNxYhsQIECAAAECBAgInZ4BAgQIECBAgACBxQWEzsWJbUCAAAECBAgQICB0egYIECBAgAABAgQWFxA6Fye2AQECBAgQIECAgNDpGSBAgAABAgQIEFhcQOhcnNgGBAgQIECAAAECDof3DIQV+OrNt7rXdsih0wccIO9Q6O6TVEBmgRG+Kw74ntiNyHdF5gdVbw6H9wwQIECAAAECBAgsL+D/Xl/e2A4ECBAgQIAAgekFhM7pHwEABAgQIECAAIHlBYTO5Y3tQIAAAQIECBCYXkDonP4RAECAAAECBAgQWF5A6Fze2A4ECBAgQIAAgekFhM7pHwEABAgQIECAAIHlBZzTubyxHRYSePW9J9WVXzx6XL2ndMOnl5ely64RIDCAQO274tzviR1B7bvCmb8DPChKXFzAm87FiW1AgAABAgQIECAgdHoGCBAgQIAAAQIEFhcQOhcntgEBAgQIECBAgIDQ6RkgQIAAAQIECBBYXEDoXJzYBgQIECBAgAABAkKnZ4AAAQIECBAgQGBxAaFzcWIbECBAgAABAgQIOKfTM0Cgv8C2fwkqILBXoPZsXuz9lD/+QKB2jucPPuAPBBIKeNOZcKhaIkCAAAECBAhEExA6o01EPQQIECBAgACBhAJCZ8KhaokAAQIECBAgEE1A6Iw2EfUQIECAAAECBBIKCJ0Jh6olAgQIECBAgEA0AaEz2kTUQ4AAAQIECBBIKCB0JhyqlggQIECAAAEC0QSEzmgTUQ8BAgQIECBAIKGAw+ETDnWWll48ejxLq69st7UzuqehCNHow4cPu9dxfX19dg3nPlcXFxeHPJjdD5Cf6bvi7IfCAgQWFPCmc0FcSxMgQIAAAQIECPxFQOj0JBAgQIAAAQIECCwuIHQuTmwDAgQIECBAgAABodMzQIAAAQIECBAgsLiA0Lk4sQ0IECBAgAABAgSETs8AAQIECBAgQIDA4gJC5+LENiBAgAABAgQIEHBOp2dgWIFX33tSrd35fFUiNxA4WeDu7q762c1mUzvLc/FzPGvfFb4nqmN0A4EmAt50NmG0CAECBAgQIECAQElA6CzpuEaAAAECBAgQINBEQOhswmgRAgQIECBAgACBkoDQWdJxjQABAgQIECBAoImA0NmE0SIECBAgQIAAAQIlAaGzpOMaAQIECBAgQIBAEwGhswmjRQgQIECAAAECBEoCzuks6bgWWsDZeqHHozgC3wvUzvI84BzPsyV9V5xNaAECTQS86WzCaBECBAgQIECAAIGSgNBZ0nGNAAECBAgQIECgiYDQ2YTRIgQIECBAgAABAiUBobOk4xoBAgQIECBAgEATAaGzCaNFCBAgQIAAAQIESgJCZ0nHNQIECBAgQIAAgSYCQmcTRosQIECAAAECBAiUBITOko5rBAgQIECAAAECTQQcDt+E0SIECLQQ+OrNt1osc9Yab3zx2Vmf92ECBAgQ2C/gTed+F38lQIAAAQIECBBoKCB0NsS0FAECBAgQIECAwH4BoXO/i78SIECAAAECBAg0FBA6G2JaigABAgQIECBAYL+A0LnfxV8JECBAgAABAgQaCgidDTEtRYAAAQIECBAgsF9A6Nzv4q8ECBAgQIAAAQINBZzT2RDTUm0FIpyX+N/39/WmNpv6Pe5oInDIM/HtBx8W93rx6HHx+qeXl8Xru4tvP39evccN6wkc8lwsXc3nBzw3S9dgfQLRBbzpjD4h9REgQIAAAQIEEggInQmGqAUCBAgQIECAQHQBoTP6hNRHgAABAgQIEEggIHQmGKIWCBAgQIAAAQLRBYTO6BNSHwECBAgQIEAggYDQmWCIWiBAgAABAgQIRBcQOqNPSH0ECBAgQIAAgQQCzulMMEQtEJhFoHYG586hdg5nC6vaWZ7O8WyhPNYar3/ySbHgr995p3jdRQIzCHjTOcOU9UiAAAECBAgQ6CwgdHYegO0JECBAgAABAjMICJ0zTFmPBAgQIECAAIHOAkJn5wHYngABAgQIECAwg4DQOcOU9UiAAAECBAgQ6CwgdHYegO0JECBAgAABAjMICJ0zTFmPBAgQIECAAIHOAkJn5wHYngABAgQIECAwg4DD4WeYsh4JJBFY4+D3JFTaCCZQOzz++3I3m2BVK4dAWwFvOtt6Wo0AAQIECBAgQGCPgNC5B8WfCBAgQIAAAQIE2goInW09rUaAAAECBAgQILBHQOjcg+JPBAgQIECAAAECbQWEzraeViNAgAABAgQIENgjIHTuQfEnAgQIECBAgACBtgJCZ1tPqxEgQIAAAQIECOwRcE7nHhR/ItBYYNt4vUWW++rNtxZZd7RFf/7gtbNLbmL5b/96dh0WIECAQCQBbzojTUMtBAgQIECAAIGkAkJn0sFqiwABAgQIECAQSUDojDQNtRAgQIAAAQIEkgoInUkHqy0CBAgQIECAQCQBoTPSNNRCgAABAgQIEEgqIHQmHay2CBAgQIAAAQKRBITOSNNQCwECBAgQIEAgqYBzOpMOVlttBO7vrqsL/frXQxzDWe2jdsMbX3xWvOXbDz4sXj/k4otHjw+5bYp7Xn/33XKfz5+Xr69w9ZB/Hx99XC5kln8/ZQVXCcwh4E3nHHPWJQECBAgQIECgq4DQ2ZXf5gQIECBAgACBOQSEzjnmrEsCBAgQIECAQFcBobMrv80JECBAgAABAnMICJ1zzFmXBAgQIECAAIGuAkJnV36bEyBAgAABAgTmEBA655izLgkQIECAAAECXQWEzq78NidAgAABAgQIzCHgcPg55qzLEwVqB1ufuOyQH6sd/u5g9yHHelbR/n2cxefDBKYT8KZzupFrmAABAgQIECCwvoDQub65HQkQIECAAAEC0wkIndONXMMECBAgQIAAgfUFhM71ze1IgAABAgQIEJhOQOicbuQaJkCAAAECBAisLyB0rm9uRwIECBAgQIDAdAJC53Qj1zABAgQIECBAYH0B53Sub25HAkMKOIdzyLEpmgABAmEEvOkMMwqFECBAgAABAgTyCgideWerMwIECBAgQIBAGAGhM8woFEKAAAECBAgQyCsgdOadrc4IECBAgAABAmEEhM4wo1AIAQIECBAgQCCvgNCZd7Y6I0CAAAECBAiEERA6w4xCIQQIECBAgACBvAKzndO5HWCUFwPUOE2J33zzLEivV93rePW9J8UaWpzj+fmf/ljcY42LP3/w2hrbpNjDv48UYzy2iRF+R3c9+S09drIr3O9N5wrItiBAgAABAgQIzC4gdM7+BOifAAECBAgQILCCgNC5ArItCBAgQIAAAQKzCwidsz8B+idAgAABAgQIrCAgdK6AbAsCBAgQIECAwOwCQufsT4D+CRAgQIAAAQIrCAidKyDbggABAgQIECAwu4DQOfsToH8CBAgQIECAwAoCsx2eWjzUdrstXl5hHN+dZntx0EgOummVgs/bpAj+0b8XL7/y0cfnbX7Ip3/720PuynHPV2++1b2R2uHwbz9/vniNERx2TUawWBy70QYff1ReaI3vit/85r5cxAFXN5tN7a4I3/3lL+bvOhjktzSCZW3e6a5705lupBoiQIAAAQIECMQTEDrjzURFBAgQIECAAIF0AkJnupFqiAABAgQIECAQT0DojDcTFREgQIAAAQIE0gkInelGqiECBAgQIECAQDwBoTPeTFREgAABAgQIEEgnIHSmG6mGCBAgQIAAAQLxBB7EK6lfRRHO5zvkfLPvzvKsnZOW4vyxNc7W6/e02ZkAgVYCEb4rnjx5rdjO48d/LF7PdHGE39IDfkd3I0nxWxrp2fKmM9I01EKAAAECBAgQSCogdCYdrLYIECBAgAABApEEhM5I01ALAQIECBAgQCCpgNCZdLDaIkCAAAECBAhEEhA6I01DLQQIECBAgACBpAJCZ9LBaosAAQIECBAgEElA6Iw0DbUQIECAAAECBJIKOKfziMG++t6T6t0vHj2u3lO64dPLy9Jl1wgQIEBgQIHaOZ4DtnRyybXf0nN/R3eF1X5LG52JvdvKWZ5HPAnedB6B5VYCBAgQIECAAIHTBITO09x8igABAgQIECBA4AgBofMILLcSIECAAAECBAicJiB0nubmUwQIECBAgAABAkcICJ1HYLmVAAECBAgQIEDgNAGh8zQ3nyJAgAABAgQIEDhCQOg8AsutBAgQIECAAAECpwkInae5+RQBAgQIECBAgMARAg6HPwLLresKfPPNs3U33Lvb1d6/ZvzjG198Vmyrdthy8cMDXaw57FqZxWKUscX4rhhFS53+Dfd7Brzp7GdvZwIECBAgQIDANAJC5zSj1igBAgQIECBAoJ+A0NnP3s4ECBAgQIAAgWkEhM5pRq1RAgQIECBAgEA/AaGzn72dCRAgQIAAAQLTCAid04xaowQIECBAgACBfgJCZz97OxMgQIAAAQIEphG4mKbTvzS6LfX7h5/9onR5lWuf/+mP1X1++eWXtXtGmWtxHttt8XLNwHUCiwnc398X176+vi5eP+Ti7e1t8baHDx8Wr7u4rsCvfnX+ucLvv/9PtaIjfLdXv5hH+S2tYR/wW7tbIsJMaq2Eue5NZ5hRKIQAAQIECBAgkFdA6Mw7W50RIECAAAECBMIICJ1hRqEQAgQIECBAgEBeAaEz72x1RoAAAQIECBAIIyB0hhmFQggQIECAAAECeQWEzryz1RkBAgQIECBAIIyA0BlmFAohQIAAAQIECOQVeJC3tfadvfrek+qiLx49rt7jBgIECBDIJfD4cfmM5SdPXsvV8Bnd1H5L/Y6egRv8o950Bh+Q8ggQIECAAAECGQSEzgxT1AMBAgQIECBAILiA0Bl8QMojQIAAAQIECGQQEDozTFEPBAgQIECAAIHgAkJn8AEpjwABAgQIECCQQUDozDBFPRAgQIAAAQIEggsIncEHpDwCBAgQIECAQAYBoTPDFPVAgAABAgQIEAgu4HD4IwbkwNojsNxKgAABAv8nUDs8fnfj++/PAea3dI457+vSm859Kv5GgAABAgQIECDQVEDobMppMQIECBAgQIAAgX0CQuc+FX8jQIAAAQIECBBoKiB0NuW0GAECBAgQIECAwD4BoXOfir8RIECAAAECBAg0FRA6m3JajAABAgQIECBAYJ+A0LlPxd8IECBAgAABAgSaCjinsynnMItth6lUoQQIECDwN4EW390XOAn0EvCms5e8fQkQIECAAAECEwkInRMNW6sECBAgQIAAgV4CQmcvefsSIECAAAECBCYSEDonGrZWCRAgQIAAAQK9BITOXvL2JUCAAAECBAhMJCB0TjRsrRIgQIAAAQIEegkInb3k7UuAAAECBAgQmEjAOZ3/b9hvfPFZ99F/fnnZvYZdAdtti+PgQrSiCAIECCwucH19ffYe537v3t7eVmu4ubmpfbmffY6n39LqGKa9wZvOaUevcQIECBAgQIDAegJC53rWdiJAgAABAgQITCsgdE47eo0TIECAAAECBNYTEDrXs7YTAQIECBAgQGBaAaFz2tFrnAABAgQIECCwnoDQuZ61nQgQIECAAAEC0woIndOOXuMECBAgQIAAgfUEhM71rO1EgAABAgQIEJhWwOHwwUb/+ief1CvabOr3uIMAAQIECLwkcHd3VzTZbDa1w+OLn49ysfZb+vU770Qpdao6vOmcatyaJUCAAAECBAj0ERA6+7jblQABAgQIECAwlYDQOdW4NUuAAAECBAgQ6CMgdPZxtysBAgQIECBAYCoBoXOqcWuWAAECBAgQINBHQOjs425XAgQIECBAgMBUAkLnVOPWLAECBAgQIECgj4BzOvu425UAAQIECIQTOOAcz3A1n1JQ7RzP79d0JvYptMXPeNNZ5HGRAAECBAgQIECghYDQ2ULRGgQIECBAgAABAkUBobPI4yIBAgQIECBAgEALAaGzhaI1CBAgQIAAAQIEigJCZ5HHRQIECBAgQIAAgRYCQmcLRWsQIECAAAECBAgUBYTOIo+LBAgQIECAAAECLQSc09lCMd4a23glqYgAAQIECBCYWcCbzpmnr3cCBAgQIECAwEoCQudK0LYhQIAAAQIECMwsIHTOPH29EyBAgAABAgRWEhA6V4K2DQECBAgQIEBgZgGhc+bp650AAQIECBAgsJKA0LkStG0IECBAgAABAjMLCJ0zT1/vBAgQIECAAIGVBITOlaBtQ4AAAQIECBCYWcDh8MGmf319Xa1ou3X2exUp2Q1fvflW947e+OKz7jXc3993ryFKAZ6JKJMYq45DfmNKHfn9Kem4VhPwprMm5DoBAgQIECBAgMDZAkLn2YQWIECAAAECBAgQqAkInTUh1wkQIECAAAECBM4WEDrPJrQAAQIECBAgQIBATUDorAm5ToAAAQIECBAgcLaA0Hk2oQUIECBAgAABAgRqAkJnTch1AgQIECBAgACBswWc03k2oQUI9BeonaH57QcfVot88ehx9Z7eN5x7xuAh9Wc5C7T2TOwsas9F7Zn49PKySvr28+fVe9xAgMAcAt50zjFnXRIgQIAAAQIEugoInV35bU6AAAECBAgQmENA6JxjzrokQIAAAQIECHQVEDq78tucAAECBAgQIDCHgNA5x5x1SYAAAQIECBDoKiB0duW3OQECBAgQIEBgDgGhc44565IAAQIECBAg0FXAOZ1d+W1OoI3AuecttqkixyqHnAU6wlmetWdiN63aOZwtJlo7y9M5ni2UrUFgDAFvOseYkyoJECBAgAABAkMLCJ1Dj0/xBAgQIECAAIExBITOMeakSgIECBAgQIDA0AJC59DjUzwBAgQIECBAYAwBoXOMOamSAAECBAgQIDC0gNA59PilWPAKAAARQklEQVQUT4AAAQIECBAYQ0DoHGNOqiRAgAABAgQIDC0gdA49PsUTIECAAAECBMYQcDj8GHNSJYGiwBqHfBcLmOziIQfI9ybxTPSegP0JEHhZwJvOl0X8NwECBAgQIECAQHMBobM5qQUJECBAgAABAgReFhA6Xxbx3wQIECBAgAABAs0FhM7mpBYkQIAAAQIECBB4WUDofFnEfxMgQIAAAQIECDQXEDqbk1qQAAECBAgQIEDgZQGh82UR/02AAAECBAgQINBcwDmdzUktmEngqzffytSOXgg0Ffj5g9fOXq/Fv7E3vvjs7DosQIDA8gLedC5vbAcCBAgQIECAwPQCQuf0jwAAAgQIECBAgMDyAkLn8sZ2IECAAAECBAhMLyB0Tv8IACBAgAABAgQILC8gdC5vbAcCBAgQIECAwPQCQuf0jwAAAgQIECBAgMDyAkLn8sZ2IECAAAECBAhML+CczukfAQDnCtTOCPz2gw/P3eKVF48en72GBQgQIECAQE8Bbzp76tubAAECBAgQIDCJgNA5yaC1SYAAAQIECBDoKSB09tS3NwECBAgQIEBgEgGhc5JBa5MAAQIECBAg0FNA6Oypb28CBAgQIECAwCQCQuckg9YmAQIECBAgQKCngNDZU9/eBAgQIECAAIFJBITOSQatTQIECBAgQIBATwGHw/fUt3cKgdrh71kOdv/08rI4r7efPy9ed5EAAQIE5hbwpnPu+eueAAECBAgQILCKgNC5CrNNCBAgQIAAAQJzCwidc89f9wQIECBAgACBVQSEzlWYbUKAAAECBAgQmFtA6Jx7/ronQIAAAQIECKwiIHSuwmwTAgQIECBAgMDcAkLn3PPXPQECBAgQIEBgFQHndK7CbJPMAlnO4Tx3RrVzPHfrO8vzXGWfJ0CAwLgC3nSOOzuVEyBAgAABAgSGERA6hxmVQgkQIECAAAEC4woInePOTuUECBAgQIAAgWEEhM5hRqVQAgQIECBAgMC4AkLnuLNTOQECBAgQIEBgGAGhc5hRKZQAAQIECBAgMK6A0Dnu7FROgAABAgQIEBhGwDmdw4xqvkJvb2+7N/3PB1Tw6ntPinc5x/PvPBcXF0Wr2sXtdlu7JcT1CM9uCIiViojg/fDhw5W6tQ2BcQW86Rx3dionQIAAAQIECAwjIHQOMyqFEiBAgAABAgTGFRA6x52dygkQIECAAAECwwgIncOMSqEECBAgQIAAgXEFhM5xZ6dyAgQIECBAgMAwAkLnMKNSKAECBAgQIEBgXAGhc9zZqZwAAQIECBAgMIyA0DnMqBRKgAABAgQIEBhXwOHw484ufeVXV1fFHp89e1a8vtZFh7+vJW0fAvsFXn/33f0X/vrXr3/3u+J1FwkQWEfAm851nO1CgAABAgQIEJhaQOicevyaJ0CAAAECBAisIyB0ruNsFwIECBAgQIDA1AJC59Tj1zwBAgQIECBAYB0BoXMdZ7sQIECAAAECBKYWEDqnHr/mCRAgQIAAAQLrCAid6zjbhQABAgQIECAwtYBzOqce/9jN187x3HW32WzOavIPP/vFWZ/34TkFDnk2azK1Z9ezWRP8+/XaOZ6//PLLwxf7kTu32+2PXPFnAgT+JuBNp2eBAAECBAgQIEBgcQGhc3FiGxAgQIAAAQIECAidngECBAgQIECAAIHFBYTOxYltQIAAAQIECBAgIHR6BggQIECAAAECBBYXEDoXJ7YBAQIECBAgQICA0OkZIECAAAECBAgQWFzAOZ2LE9uAAAEC7QX+8b/+s7joRz/9afF6pouXP/lJpnb0QiCtgDedaUerMQIECBAgQIBAHAGhM84sVEKAAAECBAgQSCsgdKYdrcYIECBAgAABAnEEhM44s1AJAQIECBAgQCCtgNCZdrQaI0CAAAECBAjEERA648xCJQQIECBAgACBtAJCZ9rRaowAAQIECBAgEEdA6IwzC5UQIECAAAECBNIKOBw+7WjPa+z29va8BRp8+urqqsEq5y3xH9/+z3kLJPq0A7jDDfOiVNG//P7329L13bUsB8g///Ofi602enaL3hcXF0Xvp0+fFmt0kcAMAt50zjBlPRIgQIAAAQIEOgsInZ0HYHsCBAgQIECAwAwCQucMU9YjAQIECBAgQKCzgNDZeQC2J0CAAAECBAjMICB0zjBlPRIgQIAAAQIEOgsInZ0HYHsCBAgQIECAwAwCQucMU9YjAQIECBAgQKCzgHM6Ow8g6va1MzKfPXu2eOm1PWo1Hlhg8ey9mc46rHmtdBZirQzXDxcoPtu7ZQ55vg/fbvo7i943NzfFczx3es7ynP4ZSg/gTWf6EWuQAAECBAgQINBfQOjsPwMVECBAgAABAgTSCwid6UesQQIECBAgQIBAfwGhs/8MVECAAAECBAgQSC8gdKYfsQYJECBAgAABAv0FhM7+M1ABAQIECBAgQCC9gNCZfsQaJECAAAECBAj0F3BOZ/8ZDFlB7YzMzWYzZF97ii6evbe731mHe9T8aRSB6vM9SiMD1Fm1PuQsz1Kfzvks6bgWQcCbzghTUAMBAgQIECBAILmA0Jl8wNojQIAAAQIECEQQEDojTEENBAgQIECAAIHkAkJn8gFrjwABAgQIECAQQUDojDAFNRAgQIAAAQIEkgsInckHrD0CBAgQIECAQAQBoTPCFNRAgAABAgQIEEguIHQmH7D2CBAgQIAAAQIRBBwOH2EK89ZQPSx5EJosfUTg3kYoQg0EOgnUvkv8++g0GNu2EfCms42jVQgQIECAAAECBAoCQmcBxyUCBAgQIECAAIE2AkJnG0erECBAgAABAgQIFASEzgKOSwQIECBAgAABAm0EhM42jlYhQIAAAQIECBAoCAidBRyXCBAgQIAAAQIE2ggInW0crUKAAAECBAgQIFAQcE5nAafHpdvb2x7b/mDPq6urH/zNHwj0Fojy76Pm4N9PTcj1EwWK53je3NxUz/F8+vTpiVsf/rGHDx8efrM7pxLwpnOqcWuWAAECBAgQINBHQOjs425XAgQIECBAgMBUAkLnVOPWLAECBAgQIECgj4DQ2cfdrgQIECBAgACBqQSEzqnGrVkCBAgQIECAQB8BobOPu10JECBAgAABAlMJCJ1TjVuzBAgQIECAAIE+As7p7OP+o7secr7fs2fPfvTzrS7U9jikzla1WGcqgSHOIaxNxL+fmpDrCwkU//3s9qyd5bnGOZ4L9W7ZAQS86RxgSEokQIAAAQIECIwuIHSOPkH1EyBAgAABAgQGEBA6BxiSEgkQIECAAAECowsInaNPUP0ECBAgQIAAgQEEhM4BhqREAgQIECBAgMDoAkLn6BNUPwECBAgQIEBgAAGhc4AhKZEAAQIECBAgMLqA0Dn6BNVPgAABAgQIEBhAoHqQ7AA9HFPitnTzdlu8XPpos2v39/dnr7XZbM5eY6UFZnv+VmKdfpv+/5DXGYF/P+s4z7bL2f9+Jvst9e/wiH8h3nQegeVWAgQIECBAgACB0wSEztPcfIoAAQIECBAgQOAIAaHzCCy3EiBAgAABAgQInCYgdJ7m5lMECBAgQIAAAQJHCAidR2C5lQABAgQIECBA4DQBofM0N58iQIAAAQIECBA4QkDoPALLrQQIECBAgAABAqcJPDjtYz41uIBzxQYfoPKLAp7vIo+LBIoCtX8/Z5/jWdzdxdQC3nSmHq/mCBAgQIAAAQIxBITOGHNQBQECBAgQIEAgtYDQmXq8miNAgAABAgQIxBAQOmPMQRUECBAgQIAAgdQCQmfq8WqOAAECBAgQIBBDQOiMMQdVECBAgAABAgRSCwidqcerOQIECBAgQIBADAGhM8YcVEGAAAECBAgQSC0gdKYer+YIECBAgAABAjEEhM4Yc1AFAQIECBAgQCC1gNCZeryaI0CAAAECBAjEEBA6Y8xBFQQIECBAgACB1AJCZ+rxao4AAQIECBAgEENA6IwxB1UQIECAAAECBFILCJ2px6s5AgQIECBAgEAMAaEzxhxUQYAAAQIECBBILSB0ph6v5ggQIECAAAECMQSEzhhzUAUBAgQIECBAILWA0Jl6vJojQIAAAQIECMQQEDpjzEEVBAgQIECAAIHUAkJn6vFqjgABAgQIECAQQ0DojDEHVRAgQIAAAQIEUgsInanHqzkCBAgQIECAQAwBoTPGHFRBgAABAgQIEEgtIHSmHq/mCBAgQIAAAQIxBITOGHNQBQECBAgQIEAgtYDQmXq8miNAgAABAgQIxBAQOmPMQRUECBAgQIAAgdQCQmfq8WqOAAECBAgQIBBDQOiMMQdVECBAgAABAgRSCwidqcerOQIECBAgQIBADAGhM8YcVEGAAAECBAgQSC0gdKYer+YIECBAgAABAjEEhM4Yc1AFAQIECBAgQCC1gNCZeryaI0CAAAECBAjEEBA6Y8xBFQQIECBAgACB1AJCZ+rxao4AAQIECBAgEENA6IwxB1UQIECAAAECBFILCJ2px6s5AgQIECBAgEAMAaEzxhxUQYAAAQIECBBILSB0ph6v5ggQIECAAAECMQQexCgjRhW3t7fdC7m6uupegwIIECBAgMCpAn5LT5XL/zlvOvPPWIcECBAgQIAAge4CQmf3ESiAAAECBAgQIJBfQOjMP2MdEiBAgAABAgS6Cwid3UegAAIECBAgQIBAfgGhM/+MdUiAAAECBAgQ6C4gdHYfgQIIECBAgAABAvkFhM78M9YhAQIECBAgQKC7wEX3CmIVsC2V8/Tp09Ll1a7VzvLcbDa1Wsy9JuQ6AQIECJwqEP63tPY7umv8gN/S3W1+T494SrzpPALLrQQIECBAgAABAqcJCJ2nufkUAQIECBAgQIDAEQJC5xFYbiVAgAABAgQIEDhNQOg8zc2nCBAgQIAAAQIEjhAQOo/AcisBAgQIECBAgMBpAkLnaW4+RYAAAQIECBAgcISA0HkEllsJECBAgAABAgROE3C+1HFuxbPHjluq693m3pXf5gQIEJhaIMtv6W6Ifk+PeJS96TwCy60ECBAgQIAAAQKnCQidp7n5FAECBAgQIECAwBECQucRWG4lQIAAAQIECBA4TUDoPM3NpwgQIECAAAECBI4QEDqPwHIrAQIECBAgQIDAaQJC52luPkWAAAECBAgQIHCEgNB5BJZbCRAgQIAAAQIEThMQOk9z8ykCBAgQIECAAAECBAgQIECAAAECBAgQIECAAAECBAgQIECAAAECBAgQIECAAAECBAgQIECAAAECBAgQIECAAAECBAgQIECAAAECBAgQIECAAAECBAgQIECAAAECBAgQIECAAAECBAgQIECAAAECBAgQIECAAAECBAgQIECAAAECBAgQIECAAAECBAgQIECAAAECBAgQIECAAAECBAgQIECAAAECBAgQIECAAAECBAgQIECAAAECBAgQIECAAAECBAgQIECAAAECBAgQIECAAAECBAgQIECAAAECBAgQIECAAAECBAgQIECAAAECBAgQIECAAAECBAgQIECAAAECBAgQIECAAAECBAgQIECAAAECBAgQIECAAAECBAgQIECAAAECBAgQIECAAAECBAgQIECAAAECBAgQIECAAAECBAgQIECAAAECBAgQIECAAAECBAgQIECAAAECBAgQIECAAAECBAgQIECAAAECBAgQIECAAAECBAgQIECAAAECBAgQIECAAAECBAgQIECAAAECBAgQIECAAAECBAgQIECAAAECBAgQIECAAAECBAgQIECAAAECBAgQIECAAAECBAgQIECAAAECBAgQIECAAAECBAgQIECAAAECBAgQIECAAAECBAgQIECAAAECBAgQIECAAAECBAgQIECAAAECBAgQIECAAAECBAgQIECAAAECBAgQIECAAAECBAgQIECAAAECBAgQINBJ4H8Bl9khN8GCCjEAAAAASUVORK5CYII=;" parent="Fnwi7rrgEe6EeBz4-D5B-1" vertex="1">
                    <mxGeometry x="351" y="515" width="78.59" height="80" as="geometry"/>
                </mxCell>
                <mxCell id="hfbUcZqBnQmAz_USagT5-0" value="" style="shape=image;verticalLabelPosition=bottom;labelBackgroundColor=#ffffff;verticalAlign=top;aspect=fixed;imageAspect=0;image=data:image/png,iVBORw0KGgoAAAANSUhEUgAAAEoAAABaCAYAAAAfBsDqAAAABHNCSVQICAgIfAhkiAAABgJJREFUeF7tWzGLHDcUXoeAi8S+IynMNmFJ4QUnDgvXppgfkANDKnfTLe6OQIp06kJIs13YJmx3RQgYLj9girTHLTEErlvSHC4c9uykWAgk88anjeatpPfejGZWxhoY7iR9eu/TN0/vpBndrclk8u8gXaQC75CIBKgUSEIxAyEJlYRiKsCEpYhKQjEVYMJSRCWhmAowYSmiklBMBZiwFFFMod5l4nqBLZfLHT/lXnSnbh8V0UXUulTBvG3iJaG0AhBFN5GkyroYxIouorbRYkzDGMSKUyhLrtrHdDN9xifUusxQxn01/X7fGlX+4xOqJHVwcFDd+opBrCiFAoGur6+3QsXwS5RCxSYSPKgohYohgjCHJBRWxFEOtoWxLQp92w8b3sGRVW2z5/PPMmqAboX6rgdEYethXodlwUUW8EWx8vItiqLWrlTutSfx73VsaQw/9YTbj8nkcHDv3vvVTV1HR8f0dkbon/Kp28MLBZYF24+rq38Gz5//Vd2ca1ouQG3TrNZX4J/jEzDBctTWoWP7QQ6Oy7jEgVjz+df2Hg7/djC/NqxQsPUwr9nTqqQ8fLiRBCYePjwabDZ/V9byfNfqMs9rnq5OfxoMXYLWkHQh+NTD2w+KAic3UTbMdpzvQm1/ggsFpCUra0lEcQXrwmZwoSQicQcuwXUhEvgPm6PQiC4vL71jzLKs1r7KRnW8WtTbVyuvvS4bg0eUSfbu3Q+Ccn/16kVQexJjnUYUEAGxXH/Kp9OphGuFHY8/qX7abSqxPW6HTiOKS+JNwAWNqCdPvquNGU+9NVpnLZf1ddcI7f1WaK93fPzl1r4q85e594MF7Xw+9/pv80CCRRRsfk9Pv61xefnyzzbcyL7m3q9r/0EjykaWHG1LgN7OgO8u/QcVCsbse63SUhNndyyWE9iiQSQUZ2PrEorDkVpHcWyYmJB8RUIBiTU6NPEU7dbzstxGLKkYFD4U32DJXBNW5S+cJ0kNsK92Ll9xRHEGAM5VR++FOP6lGM3XNxM6EUoTpdZNeEDUOgrjfesqjG1blgsVcaTAuur8/KyeIwPxlQvV9tGU/bMFfJ/hXI8qkBq9flPK6WEuFTh4LiZ4Muc6luCU+kwCr96ph/6D4hUKnJm3iG1gsFSsJu594pJTD3+kXCIGI1QuFouqJkf1fRXxxwf8wWGEiGC+i4WyrgNJocAufKTU39+aDPjwRPd6nZvWs7qVQzJlfVx1UEr/5OcsKV9XjvNOPe2kjUhSohx819PQluNYQjV9YQ/vm/A7J44QHIxNLFhXjUaj7c2xw8WQUw+mnXnNbj5q2hycnDwazGbbedaZSDbftrpnz87L6bqyNW3rQFjORQrFMSLF0DlJarF7PGvqdU8jfg9JKOYzEk89/NFS+1mU66euEjdzLFYYNwdZOxuVYqEog7b2Il8PsuxXo+kLG8xT9wtqe+DBdtPU29Qris9bjAAL83sLW8269hJRmpoWK8uakH1Q/qn/zeho/t7EnqxPbxEloxUfuteI+n/4OOdQwuCpR+HDt+8louT5qv+chKXeU0QNyjPmdHKvnzPvNye1FkophW1EXV4Rh8+466y9TL2olXWQS0I5hMHVQXMUTEscyjk6+40JhCyfnf0c0lzNFikU3r+59nraqpmAsWidjcIwfOfOhzU3FF8qh2ljaeoxn14SiikUOfWYdqywzWazc67SCnwDKkmh8AHSH9A5TfzhaPj4G9Gwx+NxDY9zBi4Ph0On/fv3P91pOyn/GdK8MN9LxPf27fd2bECFd+o1ORM5RkJavbaoxCeNW5iqumK+rgO6rH+VNT81rxEz/IRWN+2KOQI4Bm1eOIJw2X8gf9dpG77meSly6oFr3cH3bX6Xovvgq8ZK7WEfvoNfgJXa99ljCWUS/AqzReWPiHbcTP1jkS8nYVu2cii+3hyFHYPiP+JKVP6DaDebm+RAVw6xuQ3Jl5WjMAluSPtC2bTJtYd5hLbvsndxcTFoJBQm/DaURVPvbRDENcYklEsZVJ+ESkIxFWDCUkQloZgKMGEpopJQTAWYsBRRTKH+A9wu3uNQsj3WAAAAAElFTkSuQmCC;rotation=-180;" parent="Fnwi7rrgEe6EeBz4-D5B-1" vertex="1">
                    <mxGeometry x="326.8" y="100" width="74" height="90" as="geometry"/>
                </mxCell>
                <mxCell id="kQYNFF-q1xgiHXHg5_W_-0" value="" style="shape=image;verticalLabelPosition=bottom;labelBackgroundColor=#ffffff;verticalAlign=top;aspect=fixed;imageAspect=0;image=data:image/png,iVBORw0KGgoAAAANSUhEUgAAABUAAAARCAYAAAAyhueAAAAABHNCSVQICAgIfAhkiAAAAP9JREFUOE+9lEEOwiAQRdFTsOyyS4/hkTyCR/AoHsNll132CO6UD/3mMwNNo4kkZIbp8PgM0BD+2aYhvrgefO0ab2k62CAmj/OS4wq2eRhrHn3EHbQHGy5L5s7XmK02BSJ+1I9WGUGwgKFrrDe3q5QgQoy4zwJYyCp1UFWbgecxhPtULMj0k9VSKLi5facO4PgoHb405qqYSmlTJQAAaltOZdRRWymtZ34/akJ5SLl+aFSm/qrSlSrlVFAW291FwAFG50LrRpi76/L/cqWqwvGg+M6ft5DfPK36GgOke/pcQRMYY+1caVLCrsuvP4pqK2ageRbcnKdqWQ7arR3h2xsUYr4HDphX7gAAAABJRU5ErkJggg==;" parent="Fnwi7rrgEe6EeBz4-D5B-1" vertex="1">
                    <mxGeometry x="379.8" y="410" width="21" height="17" as="geometry"/>
                </mxCell>
                <mxCell id="_z8vEQhxA-teVVCZkMhT-1" value="" style="shape=image;verticalLabelPosition=bottom;labelBackgroundColor=#ffffff;verticalAlign=top;aspect=fixed;imageAspect=0;image=data:image/png,iVBORw0KGgoAAAANSUhEUgAAAEoAAABaCAYAAAAfBsDqAAAABHNCSVQICAgIfAhkiAAABgJJREFUeF7tWzGLHDcUXoeAi8S+IynMNmFJ4QUnDgvXppgfkANDKnfTLe6OQIp06kJIs13YJmx3RQgYLj9girTHLTEErlvSHC4c9uykWAgk88anjeatpPfejGZWxhoY7iR9eu/TN0/vpBndrclk8u8gXaQC75CIBKgUSEIxAyEJlYRiKsCEpYhKQjEVYMJSRCWhmAowYSmiklBMBZiwFFFMod5l4nqBLZfLHT/lXnSnbh8V0UXUulTBvG3iJaG0AhBFN5GkyroYxIouorbRYkzDGMSKUyhLrtrHdDN9xifUusxQxn01/X7fGlX+4xOqJHVwcFDd+opBrCiFAoGur6+3QsXwS5RCxSYSPKgohYohgjCHJBRWxFEOtoWxLQp92w8b3sGRVW2z5/PPMmqAboX6rgdEYethXodlwUUW8EWx8vItiqLWrlTutSfx73VsaQw/9YTbj8nkcHDv3vvVTV1HR8f0dkbon/Kp28MLBZYF24+rq38Gz5//Vd2ca1ouQG3TrNZX4J/jEzDBctTWoWP7QQ6Oy7jEgVjz+df2Hg7/djC/NqxQsPUwr9nTqqQ8fLiRBCYePjwabDZ/V9byfNfqMs9rnq5OfxoMXYLWkHQh+NTD2w+KAic3UTbMdpzvQm1/ggsFpCUra0lEcQXrwmZwoSQicQcuwXUhEvgPm6PQiC4vL71jzLKs1r7KRnW8WtTbVyuvvS4bg0eUSfbu3Q+Ccn/16kVQexJjnUYUEAGxXH/Kp9OphGuFHY8/qX7abSqxPW6HTiOKS+JNwAWNqCdPvquNGU+9NVpnLZf1ddcI7f1WaK93fPzl1r4q85e594MF7Xw+9/pv80CCRRRsfk9Pv61xefnyzzbcyL7m3q9r/0EjykaWHG1LgN7OgO8u/QcVCsbse63SUhNndyyWE9iiQSQUZ2PrEorDkVpHcWyYmJB8RUIBiTU6NPEU7dbzstxGLKkYFD4U32DJXBNW5S+cJ0kNsK92Ll9xRHEGAM5VR++FOP6lGM3XNxM6EUoTpdZNeEDUOgrjfesqjG1blgsVcaTAuur8/KyeIwPxlQvV9tGU/bMFfJ/hXI8qkBq9flPK6WEuFTh4LiZ4Muc6luCU+kwCr96ph/6D4hUKnJm3iG1gsFSsJu594pJTD3+kXCIGI1QuFouqJkf1fRXxxwf8wWGEiGC+i4WyrgNJocAufKTU39+aDPjwRPd6nZvWs7qVQzJlfVx1UEr/5OcsKV9XjvNOPe2kjUhSohx819PQluNYQjV9YQ/vm/A7J44QHIxNLFhXjUaj7c2xw8WQUw+mnXnNbj5q2hycnDwazGbbedaZSDbftrpnz87L6bqyNW3rQFjORQrFMSLF0DlJarF7PGvqdU8jfg9JKOYzEk89/NFS+1mU66euEjdzLFYYNwdZOxuVYqEog7b2Il8PsuxXo+kLG8xT9wtqe+DBdtPU29Qris9bjAAL83sLW8269hJRmpoWK8uakH1Q/qn/zeho/t7EnqxPbxEloxUfuteI+n/4OOdQwuCpR+HDt+8louT5qv+chKXeU0QNyjPmdHKvnzPvNye1FkophW1EXV4Rh8+466y9TL2olXWQS0I5hMHVQXMUTEscyjk6+40JhCyfnf0c0lzNFikU3r+59nraqpmAsWidjcIwfOfOhzU3FF8qh2ljaeoxn14SiikUOfWYdqywzWazc67SCnwDKkmh8AHSH9A5TfzhaPj4G9Gwx+NxDY9zBi4Ph0On/fv3P91pOyn/GdK8MN9LxPf27fd2bECFd+o1ORM5RkJavbaoxCeNW5iqumK+rgO6rH+VNT81rxEz/IRWN+2KOQI4Bm1eOIJw2X8gf9dpG77meSly6oFr3cH3bX6Xovvgq8ZK7WEfvoNfgJXa99ljCWUS/AqzReWPiHbcTP1jkS8nYVu2cii+3hyFHYPiP+JKVP6DaDebm+RAVw6xuQ3Jl5WjMAluSPtC2bTJtYd5hLbvsndxcTFoJBQm/DaURVPvbRDENcYklEsZVJ+ESkIxFWDCUkQloZgKMGEpopJQTAWYsBRRTKH+A9wu3uNQsj3WAAAAAElFTkSuQmCC;rotation=-180;" parent="Fnwi7rrgEe6EeBz4-D5B-1" vertex="1">
                    <mxGeometry x="414" y="110.94999999999999" width="74" height="90" as="geometry"/>
                </mxCell>
                <mxCell id="_z8vEQhxA-teVVCZkMhT-2" value="" style="shape=image;verticalLabelPosition=bottom;labelBackgroundColor=#ffffff;verticalAlign=top;aspect=fixed;imageAspect=0;image=data:image/png,iVBORw0KGgoAAAANSUhEUgAAAEoAAABaCAYAAAAfBsDqAAAABHNCSVQICAgIfAhkiAAABgJJREFUeF7tWzGLHDcUXoeAi8S+IynMNmFJ4QUnDgvXppgfkANDKnfTLe6OQIp06kJIs13YJmx3RQgYLj9girTHLTEErlvSHC4c9uykWAgk88anjeatpPfejGZWxhoY7iR9eu/TN0/vpBndrclk8u8gXaQC75CIBKgUSEIxAyEJlYRiKsCEpYhKQjEVYMJSRCWhmAowYSmiklBMBZiwFFFMod5l4nqBLZfLHT/lXnSnbh8V0UXUulTBvG3iJaG0AhBFN5GkyroYxIouorbRYkzDGMSKUyhLrtrHdDN9xifUusxQxn01/X7fGlX+4xOqJHVwcFDd+opBrCiFAoGur6+3QsXwS5RCxSYSPKgohYohgjCHJBRWxFEOtoWxLQp92w8b3sGRVW2z5/PPMmqAboX6rgdEYethXodlwUUW8EWx8vItiqLWrlTutSfx73VsaQw/9YTbj8nkcHDv3vvVTV1HR8f0dkbon/Kp28MLBZYF24+rq38Gz5//Vd2ca1ouQG3TrNZX4J/jEzDBctTWoWP7QQ6Oy7jEgVjz+df2Hg7/djC/NqxQsPUwr9nTqqQ8fLiRBCYePjwabDZ/V9byfNfqMs9rnq5OfxoMXYLWkHQh+NTD2w+KAic3UTbMdpzvQm1/ggsFpCUra0lEcQXrwmZwoSQicQcuwXUhEvgPm6PQiC4vL71jzLKs1r7KRnW8WtTbVyuvvS4bg0eUSfbu3Q+Ccn/16kVQexJjnUYUEAGxXH/Kp9OphGuFHY8/qX7abSqxPW6HTiOKS+JNwAWNqCdPvquNGU+9NVpnLZf1ddcI7f1WaK93fPzl1r4q85e594MF7Xw+9/pv80CCRRRsfk9Pv61xefnyzzbcyL7m3q9r/0EjykaWHG1LgN7OgO8u/QcVCsbse63SUhNndyyWE9iiQSQUZ2PrEorDkVpHcWyYmJB8RUIBiTU6NPEU7dbzstxGLKkYFD4U32DJXBNW5S+cJ0kNsK92Ll9xRHEGAM5VR++FOP6lGM3XNxM6EUoTpdZNeEDUOgrjfesqjG1blgsVcaTAuur8/KyeIwPxlQvV9tGU/bMFfJ/hXI8qkBq9flPK6WEuFTh4LiZ4Muc6luCU+kwCr96ph/6D4hUKnJm3iG1gsFSsJu594pJTD3+kXCIGI1QuFouqJkf1fRXxxwf8wWGEiGC+i4WyrgNJocAufKTU39+aDPjwRPd6nZvWs7qVQzJlfVx1UEr/5OcsKV9XjvNOPe2kjUhSohx819PQluNYQjV9YQ/vm/A7J44QHIxNLFhXjUaj7c2xw8WQUw+mnXnNbj5q2hycnDwazGbbedaZSDbftrpnz87L6bqyNW3rQFjORQrFMSLF0DlJarF7PGvqdU8jfg9JKOYzEk89/NFS+1mU66euEjdzLFYYNwdZOxuVYqEog7b2Il8PsuxXo+kLG8xT9wtqe+DBdtPU29Qris9bjAAL83sLW8269hJRmpoWK8uakH1Q/qn/zeho/t7EnqxPbxEloxUfuteI+n/4OOdQwuCpR+HDt+8louT5qv+chKXeU0QNyjPmdHKvnzPvNye1FkophW1EXV4Rh8+466y9TL2olXWQS0I5hMHVQXMUTEscyjk6+40JhCyfnf0c0lzNFikU3r+59nraqpmAsWidjcIwfOfOhzU3FF8qh2ljaeoxn14SiikUOfWYdqywzWazc67SCnwDKkmh8AHSH9A5TfzhaPj4G9Gwx+NxDY9zBi4Ph0On/fv3P91pOyn/GdK8MN9LxPf27fd2bECFd+o1ORM5RkJavbaoxCeNW5iqumK+rgO6rH+VNT81rxEz/IRWN+2KOQI4Bm1eOIJw2X8gf9dpG77meSly6oFr3cH3bX6Xovvgq8ZK7WEfvoNfgJXa99ljCWUS/AqzReWPiHbcTP1jkS8nYVu2cii+3hyFHYPiP+JKVP6DaDebm+RAVw6xuQ3Jl5WjMAluSPtC2bTJtYd5hLbvsndxcTFoJBQm/DaURVPvbRDENcYklEsZVJ+ESkIxFWDCUkQloZgKMGEpopJQTAWYsBRRTKH+A9wu3uNQsj3WAAAAAElFTkSuQmCC;rotation=-180;" parent="Fnwi7rrgEe6EeBz4-D5B-1" vertex="1">
                    <mxGeometry x="240" y="103.65" width="80" height="97.3" as="geometry"/>
                </mxCell>
                <mxCell id="_z8vEQhxA-teVVCZkMhT-3" value="" style="shape=image;verticalLabelPosition=bottom;labelBackgroundColor=#ffffff;verticalAlign=top;aspect=fixed;imageAspect=0;image=data:image/png,iVBORw0KGgoAAAANSUhEUgAAAEoAAABaCAYAAAAfBsDqAAAABHNCSVQICAgIfAhkiAAABgJJREFUeF7tWzGLHDcUXoeAi8S+IynMNmFJ4QUnDgvXppgfkANDKnfTLe6OQIp06kJIs13YJmx3RQgYLj9girTHLTEErlvSHC4c9uykWAgk88anjeatpPfejGZWxhoY7iR9eu/TN0/vpBndrclk8u8gXaQC75CIBKgUSEIxAyEJlYRiKsCEpYhKQjEVYMJSRCWhmAowYSmiklBMBZiwFFFMod5l4nqBLZfLHT/lXnSnbh8V0UXUulTBvG3iJaG0AhBFN5GkyroYxIouorbRYkzDGMSKUyhLrtrHdDN9xifUusxQxn01/X7fGlX+4xOqJHVwcFDd+opBrCiFAoGur6+3QsXwS5RCxSYSPKgohYohgjCHJBRWxFEOtoWxLQp92w8b3sGRVW2z5/PPMmqAboX6rgdEYethXodlwUUW8EWx8vItiqLWrlTutSfx73VsaQw/9YTbj8nkcHDv3vvVTV1HR8f0dkbon/Kp28MLBZYF24+rq38Gz5//Vd2ca1ouQG3TrNZX4J/jEzDBctTWoWP7QQ6Oy7jEgVjz+df2Hg7/djC/NqxQsPUwr9nTqqQ8fLiRBCYePjwabDZ/V9byfNfqMs9rnq5OfxoMXYLWkHQh+NTD2w+KAic3UTbMdpzvQm1/ggsFpCUra0lEcQXrwmZwoSQicQcuwXUhEvgPm6PQiC4vL71jzLKs1r7KRnW8WtTbVyuvvS4bg0eUSfbu3Q+Ccn/16kVQexJjnUYUEAGxXH/Kp9OphGuFHY8/qX7abSqxPW6HTiOKS+JNwAWNqCdPvquNGU+9NVpnLZf1ddcI7f1WaK93fPzl1r4q85e594MF7Xw+9/pv80CCRRRsfk9Pv61xefnyzzbcyL7m3q9r/0EjykaWHG1LgN7OgO8u/QcVCsbse63SUhNndyyWE9iiQSQUZ2PrEorDkVpHcWyYmJB8RUIBiTU6NPEU7dbzstxGLKkYFD4U32DJXBNW5S+cJ0kNsK92Ll9xRHEGAM5VR++FOP6lGM3XNxM6EUoTpdZNeEDUOgrjfesqjG1blgsVcaTAuur8/KyeIwPxlQvV9tGU/bMFfJ/hXI8qkBq9flPK6WEuFTh4LiZ4Muc6luCU+kwCr96ph/6D4hUKnJm3iG1gsFSsJu594pJTD3+kXCIGI1QuFouqJkf1fRXxxwf8wWGEiGC+i4WyrgNJocAufKTU39+aDPjwRPd6nZvWs7qVQzJlfVx1UEr/5OcsKV9XjvNOPe2kjUhSohx819PQluNYQjV9YQ/vm/A7J44QHIxNLFhXjUaj7c2xw8WQUw+mnXnNbj5q2hycnDwazGbbedaZSDbftrpnz87L6bqyNW3rQFjORQrFMSLF0DlJarF7PGvqdU8jfg9JKOYzEk89/NFS+1mU66euEjdzLFYYNwdZOxuVYqEog7b2Il8PsuxXo+kLG8xT9wtqe+DBdtPU29Qris9bjAAL83sLW8269hJRmpoWK8uakH1Q/qn/zeho/t7EnqxPbxEloxUfuteI+n/4OOdQwuCpR+HDt+8louT5qv+chKXeU0QNyjPmdHKvnzPvNye1FkophW1EXV4Rh8+466y9TL2olXWQS0I5hMHVQXMUTEscyjk6+40JhCyfnf0c0lzNFikU3r+59nraqpmAsWidjcIwfOfOhzU3FF8qh2ljaeoxn14SiikUOfWYdqywzWazc67SCnwDKkmh8AHSH9A5TfzhaPj4G9Gwx+NxDY9zBi4Ph0On/fv3P91pOyn/GdK8MN9LxPf27fd2bECFd+o1ORM5RkJavbaoxCeNW5iqumK+rgO6rH+VNT81rxEz/IRWN+2KOQI4Bm1eOIJw2X8gf9dpG77meSly6oFr3cH3bX6Xovvgq8ZK7WEfvoNfgJXa99ljCWUS/AqzReWPiHbcTP1jkS8nYVu2cii+3hyFHYPiP+JKVP6DaDebm+RAVw6xuQ3Jl5WjMAluSPtC2bTJtYd5hLbvsndxcTFoJBQm/DaURVPvbRDENcYklEsZVJ+ESkIxFWDCUkQloZgKMGEpopJQTAWYsBRRTKH+A9wu3uNQsj3WAAAAAElFTkSuQmCC;rotation=-180;" parent="Fnwi7rrgEe6EeBz4-D5B-1" vertex="1">
                    <mxGeometry x="510" y="108.7" width="80" height="97.3" as="geometry"/>
                </mxCell>
                <mxCell id="_z8vEQhxA-teVVCZkMhT-4" value="" style="shape=image;verticalLabelPosition=bottom;labelBackgroundColor=#ffffff;verticalAlign=top;aspect=fixed;imageAspect=0;image=data:image/png,iVBORw0KGgoAAAANSUhEUgAAAEoAAABaCAYAAAAfBsDqAAAABHNCSVQICAgIfAhkiAAABgJJREFUeF7tWzGLHDcUXoeAi8S+IynMNmFJ4QUnDgvXppgfkANDKnfTLe6OQIp06kJIs13YJmx3RQgYLj9girTHLTEErlvSHC4c9uykWAgk88anjeatpPfejGZWxhoY7iR9eu/TN0/vpBndrclk8u8gXaQC75CIBKgUSEIxAyEJlYRiKsCEpYhKQjEVYMJSRCWhmAowYSmiklBMBZiwFFFMod5l4nqBLZfLHT/lXnSnbh8V0UXUulTBvG3iJaG0AhBFN5GkyroYxIouorbRYkzDGMSKUyhLrtrHdDN9xifUusxQxn01/X7fGlX+4xOqJHVwcFDd+opBrCiFAoGur6+3QsXwS5RCxSYSPKgohYohgjCHJBRWxFEOtoWxLQp92w8b3sGRVW2z5/PPMmqAboX6rgdEYethXodlwUUW8EWx8vItiqLWrlTutSfx73VsaQw/9YTbj8nkcHDv3vvVTV1HR8f0dkbon/Kp28MLBZYF24+rq38Gz5//Vd2ca1ouQG3TrNZX4J/jEzDBctTWoWP7QQ6Oy7jEgVjz+df2Hg7/djC/NqxQsPUwr9nTqqQ8fLiRBCYePjwabDZ/V9byfNfqMs9rnq5OfxoMXYLWkHQh+NTD2w+KAic3UTbMdpzvQm1/ggsFpCUra0lEcQXrwmZwoSQicQcuwXUhEvgPm6PQiC4vL71jzLKs1r7KRnW8WtTbVyuvvS4bg0eUSfbu3Q+Ccn/16kVQexJjnUYUEAGxXH/Kp9OphGuFHY8/qX7abSqxPW6HTiOKS+JNwAWNqCdPvquNGU+9NVpnLZf1ddcI7f1WaK93fPzl1r4q85e594MF7Xw+9/pv80CCRRRsfk9Pv61xefnyzzbcyL7m3q9r/0EjykaWHG1LgN7OgO8u/QcVCsbse63SUhNndyyWE9iiQSQUZ2PrEorDkVpHcWyYmJB8RUIBiTU6NPEU7dbzstxGLKkYFD4U32DJXBNW5S+cJ0kNsK92Ll9xRHEGAM5VR++FOP6lGM3XNxM6EUoTpdZNeEDUOgrjfesqjG1blgsVcaTAuur8/KyeIwPxlQvV9tGU/bMFfJ/hXI8qkBq9flPK6WEuFTh4LiZ4Muc6luCU+kwCr96ph/6D4hUKnJm3iG1gsFSsJu594pJTD3+kXCIGI1QuFouqJkf1fRXxxwf8wWGEiGC+i4WyrgNJocAufKTU39+aDPjwRPd6nZvWs7qVQzJlfVx1UEr/5OcsKV9XjvNOPe2kjUhSohx819PQluNYQjV9YQ/vm/A7J44QHIxNLFhXjUaj7c2xw8WQUw+mnXnNbj5q2hycnDwazGbbedaZSDbftrpnz87L6bqyNW3rQFjORQrFMSLF0DlJarF7PGvqdU8jfg9JKOYzEk89/NFS+1mU66euEjdzLFYYNwdZOxuVYqEog7b2Il8PsuxXo+kLG8xT9wtqe+DBdtPU29Qris9bjAAL83sLW8269hJRmpoWK8uakH1Q/qn/zeho/t7EnqxPbxEloxUfuteI+n/4OOdQwuCpR+HDt+8louT5qv+chKXeU0QNyjPmdHKvnzPvNye1FkophW1EXV4Rh8+466y9TL2olXWQS0I5hMHVQXMUTEscyjk6+40JhCyfnf0c0lzNFikU3r+59nraqpmAsWidjcIwfOfOhzU3FF8qh2ljaeoxn14SiikUOfWYdqywzWazc67SCnwDKkmh8AHSH9A5TfzhaPj4G9Gwx+NxDY9zBi4Ph0On/fv3P91pOyn/GdK8MN9LxPf27fd2bECFd+o1ORM5RkJavbaoxCeNW5iqumK+rgO6rH+VNT81rxEz/IRWN+2KOQI4Bm1eOIJw2X8gf9dpG77meSly6oFr3cH3bX6Xovvgq8ZK7WEfvoNfgJXa99ljCWUS/AqzReWPiHbcTP1jkS8nYVu2cii+3hyFHYPiP+JKVP6DaDebm+RAVw6xuQ3Jl5WjMAluSPtC2bTJtYd5hLbvsndxcTFoJBQm/DaURVPvbRDENcYklEsZVJ+ESkIxFWDCUkQloZgKMGEpopJQTAWYsBRRTKH+A9wu3uNQsj3WAAAAAElFTkSuQmCC;rotation=-180;" parent="Fnwi7rrgEe6EeBz4-D5B-1" vertex="1">
                    <mxGeometry x="240" y="197.3" width="80" height="97.3" as="geometry"/>
                </mxCell>
                <mxCell id="_z8vEQhxA-teVVCZkMhT-5" value="" style="shape=image;verticalLabelPosition=bottom;labelBackgroundColor=#ffffff;verticalAlign=top;aspect=fixed;imageAspect=0;image=data:image/png,iVBORw0KGgoAAAANSUhEUgAAAEoAAABaCAYAAAAfBsDqAAAABHNCSVQICAgIfAhkiAAABgJJREFUeF7tWzGLHDcUXoeAi8S+IynMNmFJ4QUnDgvXppgfkANDKnfTLe6OQIp06kJIs13YJmx3RQgYLj9girTHLTEErlvSHC4c9uykWAgk88anjeatpPfejGZWxhoY7iR9eu/TN0/vpBndrclk8u8gXaQC75CIBKgUSEIxAyEJlYRiKsCEpYhKQjEVYMJSRCWhmAowYSmiklBMBZiwFFFMod5l4nqBLZfLHT/lXnSnbh8V0UXUulTBvG3iJaG0AhBFN5GkyroYxIouorbRYkzDGMSKUyhLrtrHdDN9xifUusxQxn01/X7fGlX+4xOqJHVwcFDd+opBrCiFAoGur6+3QsXwS5RCxSYSPKgohYohgjCHJBRWxFEOtoWxLQp92w8b3sGRVW2z5/PPMmqAboX6rgdEYethXodlwUUW8EWx8vItiqLWrlTutSfx73VsaQw/9YTbj8nkcHDv3vvVTV1HR8f0dkbon/Kp28MLBZYF24+rq38Gz5//Vd2ca1ouQG3TrNZX4J/jEzDBctTWoWP7QQ6Oy7jEgVjz+df2Hg7/djC/NqxQsPUwr9nTqqQ8fLiRBCYePjwabDZ/V9byfNfqMs9rnq5OfxoMXYLWkHQh+NTD2w+KAic3UTbMdpzvQm1/ggsFpCUra0lEcQXrwmZwoSQicQcuwXUhEvgPm6PQiC4vL71jzLKs1r7KRnW8WtTbVyuvvS4bg0eUSfbu3Q+Ccn/16kVQexJjnUYUEAGxXH/Kp9OphGuFHY8/qX7abSqxPW6HTiOKS+JNwAWNqCdPvquNGU+9NVpnLZf1ddcI7f1WaK93fPzl1r4q85e594MF7Xw+9/pv80CCRRRsfk9Pv61xefnyzzbcyL7m3q9r/0EjykaWHG1LgN7OgO8u/QcVCsbse63SUhNndyyWE9iiQSQUZ2PrEorDkVpHcWyYmJB8RUIBiTU6NPEU7dbzstxGLKkYFD4U32DJXBNW5S+cJ0kNsK92Ll9xRHEGAM5VR++FOP6lGM3XNxM6EUoTpdZNeEDUOgrjfesqjG1blgsVcaTAuur8/KyeIwPxlQvV9tGU/bMFfJ/hXI8qkBq9flPK6WEuFTh4LiZ4Muc6luCU+kwCr96ph/6D4hUKnJm3iG1gsFSsJu594pJTD3+kXCIGI1QuFouqJkf1fRXxxwf8wWGEiGC+i4WyrgNJocAufKTU39+aDPjwRPd6nZvWs7qVQzJlfVx1UEr/5OcsKV9XjvNOPe2kjUhSohx819PQluNYQjV9YQ/vm/A7J44QHIxNLFhXjUaj7c2xw8WQUw+mnXnNbj5q2hycnDwazGbbedaZSDbftrpnz87L6bqyNW3rQFjORQrFMSLF0DlJarF7PGvqdU8jfg9JKOYzEk89/NFS+1mU66euEjdzLFYYNwdZOxuVYqEog7b2Il8PsuxXo+kLG8xT9wtqe+DBdtPU29Qris9bjAAL83sLW8269hJRmpoWK8uakH1Q/qn/zeho/t7EnqxPbxEloxUfuteI+n/4OOdQwuCpR+HDt+8louT5qv+chKXeU0QNyjPmdHKvnzPvNye1FkophW1EXV4Rh8+466y9TL2olXWQS0I5hMHVQXMUTEscyjk6+40JhCyfnf0c0lzNFikU3r+59nraqpmAsWidjcIwfOfOhzU3FF8qh2ljaeoxn14SiikUOfWYdqywzWazc67SCnwDKkmh8AHSH9A5TfzhaPj4G9Gwx+NxDY9zBi4Ph0On/fv3P91pOyn/GdK8MN9LxPf27fd2bECFd+o1ORM5RkJavbaoxCeNW5iqumK+rgO6rH+VNT81rxEz/IRWN+2KOQI4Bm1eOIJw2X8gf9dpG77meSly6oFr3cH3bX6Xovvgq8ZK7WEfvoNfgJXa99ljCWUS/AqzReWPiHbcTP1jkS8nYVu2cii+3hyFHYPiP+JKVP6DaDebm+RAVw6xuQ3Jl5WjMAluSPtC2bTJtYd5hLbvsndxcTFoJBQm/DaURVPvbRDENcYklEsZVJ+ESkIxFWDCUkQloZgKMGEpopJQTAWYsBRRTKH+A9wu3uNQsj3WAAAAAElFTkSuQmCC;rotation=-180;" parent="Fnwi7rrgEe6EeBz4-D5B-1" vertex="1">
                    <mxGeometry x="323.8" y="197.3" width="80" height="97.3" as="geometry"/>
                </mxCell>
                <mxCell id="_z8vEQhxA-teVVCZkMhT-6" value="" style="shape=image;verticalLabelPosition=bottom;labelBackgroundColor=#ffffff;verticalAlign=top;aspect=fixed;imageAspect=0;image=data:image/png,iVBORw0KGgoAAAANSUhEUgAAAEoAAABaCAYAAAAfBsDqAAAABHNCSVQICAgIfAhkiAAABgJJREFUeF7tWzGLHDcUXoeAi8S+IynMNmFJ4QUnDgvXppgfkANDKnfTLe6OQIp06kJIs13YJmx3RQgYLj9girTHLTEErlvSHC4c9uykWAgk88anjeatpPfejGZWxhoY7iR9eu/TN0/vpBndrclk8u8gXaQC75CIBKgUSEIxAyEJlYRiKsCEpYhKQjEVYMJSRCWhmAowYSmiklBMBZiwFFFMod5l4nqBLZfLHT/lXnSnbh8V0UXUulTBvG3iJaG0AhBFN5GkyroYxIouorbRYkzDGMSKUyhLrtrHdDN9xifUusxQxn01/X7fGlX+4xOqJHVwcFDd+opBrCiFAoGur6+3QsXwS5RCxSYSPKgohYohgjCHJBRWxFEOtoWxLQp92w8b3sGRVW2z5/PPMmqAboX6rgdEYethXodlwUUW8EWx8vItiqLWrlTutSfx73VsaQw/9YTbj8nkcHDv3vvVTV1HR8f0dkbon/Kp28MLBZYF24+rq38Gz5//Vd2ca1ouQG3TrNZX4J/jEzDBctTWoWP7QQ6Oy7jEgVjz+df2Hg7/djC/NqxQsPUwr9nTqqQ8fLiRBCYePjwabDZ/V9byfNfqMs9rnq5OfxoMXYLWkHQh+NTD2w+KAic3UTbMdpzvQm1/ggsFpCUra0lEcQXrwmZwoSQicQcuwXUhEvgPm6PQiC4vL71jzLKs1r7KRnW8WtTbVyuvvS4bg0eUSfbu3Q+Ccn/16kVQexJjnUYUEAGxXH/Kp9OphGuFHY8/qX7abSqxPW6HTiOKS+JNwAWNqCdPvquNGU+9NVpnLZf1ddcI7f1WaK93fPzl1r4q85e594MF7Xw+9/pv80CCRRRsfk9Pv61xefnyzzbcyL7m3q9r/0EjykaWHG1LgN7OgO8u/QcVCsbse63SUhNndyyWE9iiQSQUZ2PrEorDkVpHcWyYmJB8RUIBiTU6NPEU7dbzstxGLKkYFD4U32DJXBNW5S+cJ0kNsK92Ll9xRHEGAM5VR++FOP6lGM3XNxM6EUoTpdZNeEDUOgrjfesqjG1blgsVcaTAuur8/KyeIwPxlQvV9tGU/bMFfJ/hXI8qkBq9flPK6WEuFTh4LiZ4Muc6luCU+kwCr96ph/6D4hUKnJm3iG1gsFSsJu594pJTD3+kXCIGI1QuFouqJkf1fRXxxwf8wWGEiGC+i4WyrgNJocAufKTU39+aDPjwRPd6nZvWs7qVQzJlfVx1UEr/5OcsKV9XjvNOPe2kjUhSohx819PQluNYQjV9YQ/vm/A7J44QHIxNLFhXjUaj7c2xw8WQUw+mnXnNbj5q2hycnDwazGbbedaZSDbftrpnz87L6bqyNW3rQFjORQrFMSLF0DlJarF7PGvqdU8jfg9JKOYzEk89/NFS+1mU66euEjdzLFYYNwdZOxuVYqEog7b2Il8PsuxXo+kLG8xT9wtqe+DBdtPU29Qris9bjAAL83sLW8269hJRmpoWK8uakH1Q/qn/zeho/t7EnqxPbxEloxUfuteI+n/4OOdQwuCpR+HDt+8louT5qv+chKXeU0QNyjPmdHKvnzPvNye1FkophW1EXV4Rh8+466y9TL2olXWQS0I5hMHVQXMUTEscyjk6+40JhCyfnf0c0lzNFikU3r+59nraqpmAsWidjcIwfOfOhzU3FF8qh2ljaeoxn14SiikUOfWYdqywzWazc67SCnwDKkmh8AHSH9A5TfzhaPj4G9Gwx+NxDY9zBi4Ph0On/fv3P91pOyn/GdK8MN9LxPf27fd2bECFd+o1ORM5RkJavbaoxCeNW5iqumK+rgO6rH+VNT81rxEz/IRWN+2KOQI4Bm1eOIJw2X8gf9dpG77meSly6oFr3cH3bX6Xovvgq8ZK7WEfvoNfgJXa99ljCWUS/AqzReWPiHbcTP1jkS8nYVu2cii+3hyFHYPiP+JKVP6DaDebm+RAVw6xuQ3Jl5WjMAluSPtC2bTJtYd5hLbvsndxcTFoJBQm/DaURVPvbRDENcYklEsZVJ+ESkIxFWDCUkQloZgKMGEpopJQTAWYsBRRTKH+A9wu3uNQsj3WAAAAAElFTkSuQmCC;rotation=-180;" parent="Fnwi7rrgEe6EeBz4-D5B-1" vertex="1">
                    <mxGeometry x="414" y="200.95" width="80" height="97.3" as="geometry"/>
                </mxCell>
                <mxCell id="_z8vEQhxA-teVVCZkMhT-7" value="" style="shape=image;verticalLabelPosition=bottom;labelBackgroundColor=#ffffff;verticalAlign=top;aspect=fixed;imageAspect=0;image=data:image/png,iVBORw0KGgoAAAANSUhEUgAAAEoAAABaCAYAAAAfBsDqAAAABHNCSVQICAgIfAhkiAAABgJJREFUeF7tWzGLHDcUXoeAi8S+IynMNmFJ4QUnDgvXppgfkANDKnfTLe6OQIp06kJIs13YJmx3RQgYLj9girTHLTEErlvSHC4c9uykWAgk88anjeatpPfejGZWxhoY7iR9eu/TN0/vpBndrclk8u8gXaQC75CIBKgUSEIxAyEJlYRiKsCEpYhKQjEVYMJSRCWhmAowYSmiklBMBZiwFFFMod5l4nqBLZfLHT/lXnSnbh8V0UXUulTBvG3iJaG0AhBFN5GkyroYxIouorbRYkzDGMSKUyhLrtrHdDN9xifUusxQxn01/X7fGlX+4xOqJHVwcFDd+opBrCiFAoGur6+3QsXwS5RCxSYSPKgohYohgjCHJBRWxFEOtoWxLQp92w8b3sGRVW2z5/PPMmqAboX6rgdEYethXodlwUUW8EWx8vItiqLWrlTutSfx73VsaQw/9YTbj8nkcHDv3vvVTV1HR8f0dkbon/Kp28MLBZYF24+rq38Gz5//Vd2ca1ouQG3TrNZX4J/jEzDBctTWoWP7QQ6Oy7jEgVjz+df2Hg7/djC/NqxQsPUwr9nTqqQ8fLiRBCYePjwabDZ/V9byfNfqMs9rnq5OfxoMXYLWkHQh+NTD2w+KAic3UTbMdpzvQm1/ggsFpCUra0lEcQXrwmZwoSQicQcuwXUhEvgPm6PQiC4vL71jzLKs1r7KRnW8WtTbVyuvvS4bg0eUSfbu3Q+Ccn/16kVQexJjnUYUEAGxXH/Kp9OphGuFHY8/qX7abSqxPW6HTiOKS+JNwAWNqCdPvquNGU+9NVpnLZf1ddcI7f1WaK93fPzl1r4q85e594MF7Xw+9/pv80CCRRRsfk9Pv61xefnyzzbcyL7m3q9r/0EjykaWHG1LgN7OgO8u/QcVCsbse63SUhNndyyWE9iiQSQUZ2PrEorDkVpHcWyYmJB8RUIBiTU6NPEU7dbzstxGLKkYFD4U32DJXBNW5S+cJ0kNsK92Ll9xRHEGAM5VR++FOP6lGM3XNxM6EUoTpdZNeEDUOgrjfesqjG1blgsVcaTAuur8/KyeIwPxlQvV9tGU/bMFfJ/hXI8qkBq9flPK6WEuFTh4LiZ4Muc6luCU+kwCr96ph/6D4hUKnJm3iG1gsFSsJu594pJTD3+kXCIGI1QuFouqJkf1fRXxxwf8wWGEiGC+i4WyrgNJocAufKTU39+aDPjwRPd6nZvWs7qVQzJlfVx1UEr/5OcsKV9XjvNOPe2kjUhSohx819PQluNYQjV9YQ/vm/A7J44QHIxNLFhXjUaj7c2xw8WQUw+mnXnNbj5q2hycnDwazGbbedaZSDbftrpnz87L6bqyNW3rQFjORQrFMSLF0DlJarF7PGvqdU8jfg9JKOYzEk89/NFS+1mU66euEjdzLFYYNwdZOxuVYqEog7b2Il8PsuxXo+kLG8xT9wtqe+DBdtPU29Qris9bjAAL83sLW8269hJRmpoWK8uakH1Q/qn/zeho/t7EnqxPbxEloxUfuteI+n/4OOdQwuCpR+HDt+8louT5qv+chKXeU0QNyjPmdHKvnzPvNye1FkophW1EXV4Rh8+466y9TL2olXWQS0I5hMHVQXMUTEscyjk6+40JhCyfnf0c0lzNFikU3r+59nraqpmAsWidjcIwfOfOhzU3FF8qh2ljaeoxn14SiikUOfWYdqywzWazc67SCnwDKkmh8AHSH9A5TfzhaPj4G9Gwx+NxDY9zBi4Ph0On/fv3P91pOyn/GdK8MN9LxPf27fd2bECFd+o1ORM5RkJavbaoxCeNW5iqumK+rgO6rH+VNT81rxEz/IRWN+2KOQI4Bm1eOIJw2X8gf9dpG77meSly6oFr3cH3bX6Xovvgq8ZK7WEfvoNfgJXa99ljCWUS/AqzReWPiHbcTP1jkS8nYVu2cii+3hyFHYPiP+JKVP6DaDebm+RAVw6xuQ3Jl5WjMAluSPtC2bTJtYd5hLbvsndxcTFoJBQm/DaURVPvbRDENcYklEsZVJ+ESkIxFWDCUkQloZgKMGEpopJQTAWYsBRRTKH+A9wu3uNQsj3WAAAAAElFTkSuQmCC;rotation=-180;" parent="Fnwi7rrgEe6EeBz4-D5B-1" vertex="1">
                    <mxGeometry x="510" y="206" width="80" height="97.3" as="geometry"/>
                </mxCell>
            </root>
        </mxGraphModel>
    </diagram>
    <diagram id="LrRJUENodQ0jW-7DTB09" name="Casos de Usos">
        <mxGraphModel dx="548" dy="459" grid="1" gridSize="10" guides="1" tooltips="1" connect="1" arrows="1" fold="1" page="1" pageScale="1" pageWidth="827" pageHeight="1169" math="0" shadow="0">
            <root>
                <mxCell id="0"/>
                <mxCell id="1" parent="0"/>
                <mxCell id="7" value="Nave Jugador" style="shape=umlActor;verticalLabelPosition=bottom;verticalAlign=top;html=1;" parent="1" vertex="1">
                    <mxGeometry x="150" y="100" width="30" height="60" as="geometry"/>
                </mxCell>
                <mxCell id="8" value="Ganar Puntos" style="ellipse;whiteSpace=wrap;html=1;" parent="1" vertex="1">
                    <mxGeometry x="370" y="70" width="140" height="70" as="geometry"/>
                </mxCell>
                <mxCell id="9" value="Nave Enemiga&lt;br&gt;" style="shape=umlActor;verticalLabelPosition=bottom;verticalAlign=top;html=1;" parent="1" vertex="1">
                    <mxGeometry x="670" y="220" width="30" height="60" as="geometry"/>
                </mxCell>
                <mxCell id="12" value="Mejorar Nave" style="ellipse;whiteSpace=wrap;html=1;" parent="1" vertex="1">
                    <mxGeometry x="274" y="270" width="140" height="70" as="geometry"/>
                </mxCell>
                <mxCell id="13" value="v" style="endArrow=none;html=1;edgeStyle=orthogonalEdgeStyle;exitX=0.5;exitY=0.5;exitDx=0;exitDy=0;exitPerimeter=0;" parent="1" source="7" target="12" edge="1">
                    <mxGeometry relative="1" as="geometry">
                        <mxPoint x="460" y="240" as="sourcePoint"/>
                        <mxPoint x="620" y="240" as="targetPoint"/>
                        <Array as="points">
                            <mxPoint x="250" y="130"/>
                            <mxPoint x="250" y="240"/>
                        </Array>
                    </mxGeometry>
                </mxCell>
                <mxCell id="16" value="" style="endArrow=none;html=1;edgeStyle=orthogonalEdgeStyle;" parent="1" target="8" edge="1">
                    <mxGeometry relative="1" as="geometry">
                        <mxPoint x="170" y="110" as="sourcePoint"/>
                        <mxPoint x="330" y="110" as="targetPoint"/>
                    </mxGeometry>
                </mxCell>
                <mxCell id="20" value="Incluye" style="endArrow=block;endSize=16;endFill=0;html=1;entryX=0.5;entryY=0;entryDx=0;entryDy=0;" parent="1" source="8" target="22" edge="1">
                    <mxGeometry width="160" relative="1" as="geometry">
                        <mxPoint x="580" y="190" as="sourcePoint"/>
                        <mxPoint x="620" y="240" as="targetPoint"/>
                    </mxGeometry>
                </mxCell>
                <mxCell id="22" value="Destruir con Misiles" style="ellipse;whiteSpace=wrap;html=1;" parent="1" vertex="1">
                    <mxGeometry x="414" y="200" width="140" height="70" as="geometry"/>
                </mxCell>
                <mxCell id="23" value="Incluye" style="endArrow=block;endSize=16;endFill=0;html=1;exitX=0.993;exitY=0.357;exitDx=0;exitDy=0;exitPerimeter=0;" parent="1" source="12" target="22" edge="1">
                    <mxGeometry width="160" relative="1" as="geometry">
                        <mxPoint x="398" y="325.96000000000004" as="sourcePoint"/>
                        <mxPoint x="350" y="229.99999999999997" as="targetPoint"/>
                    </mxGeometry>
                </mxCell>
                <mxCell id="25" value="" style="endArrow=block;endFill=1;html=1;edgeStyle=orthogonalEdgeStyle;align=left;verticalAlign=top;exitX=1;exitY=0.5;exitDx=0;exitDy=0;" parent="1" source="22" target="9" edge="1">
                    <mxGeometry x="-1" relative="1" as="geometry">
                        <mxPoint x="460" y="240" as="sourcePoint"/>
                        <mxPoint x="620" y="240" as="targetPoint"/>
                        <Array as="points">
                            <mxPoint x="554" y="240"/>
                            <mxPoint x="610" y="240"/>
                            <mxPoint x="610" y="250"/>
                        </Array>
                    </mxGeometry>
                </mxCell>
                <mxCell id="26" value="1" style="edgeLabel;resizable=0;html=1;align=left;verticalAlign=bottom;" parent="25" connectable="0" vertex="1">
                    <mxGeometry x="-1" relative="1" as="geometry"/>
                </mxCell>
                <mxCell id="30" value="" style="endArrow=none;html=1;edgeStyle=orthogonalEdgeStyle;entryX=0;entryY=1;entryDx=0;entryDy=0;entryPerimeter=0;" parent="1" source="33" target="9" edge="1">
                    <mxGeometry relative="1" as="geometry">
                        <mxPoint x="460" y="290" as="sourcePoint"/>
                        <mxPoint x="620" y="290" as="targetPoint"/>
                        <Array as="points">
                            <mxPoint x="484" y="280"/>
                        </Array>
                    </mxGeometry>
                </mxCell>
                <mxCell id="33" value="Destruir" style="ellipse;whiteSpace=wrap;html=1;" parent="1" vertex="1">
                    <mxGeometry x="344" y="380" width="140" height="70" as="geometry"/>
                </mxCell>
                <mxCell id="34" value="" style="endArrow=block;endFill=1;html=1;edgeStyle=orthogonalEdgeStyle;align=left;verticalAlign=top;exitX=0;exitY=0.5;exitDx=0;exitDy=0;" parent="1" source="33" edge="1">
                    <mxGeometry x="-0.9307" y="35" relative="1" as="geometry">
                        <mxPoint x="460" y="290" as="sourcePoint"/>
                        <mxPoint x="165" y="190" as="targetPoint"/>
                        <mxPoint as="offset"/>
                    </mxGeometry>
                </mxCell>
                <mxCell id="36" value="Extends" style="endArrow=block;endSize=16;endFill=0;html=1;" parent="1" target="37" edge="1">
                    <mxGeometry width="160" relative="1" as="geometry">
                        <mxPoint x="450" y="440" as="sourcePoint"/>
                        <mxPoint x="510" y="500" as="targetPoint"/>
                    </mxGeometry>
                </mxCell>
                <mxCell id="37" value="Chocar" style="ellipse;whiteSpace=wrap;html=1;" parent="1" vertex="1">
                    <mxGeometry x="470" y="500" width="140" height="70" as="geometry"/>
                </mxCell>
                <mxCell id="38" value="Misiles" style="ellipse;whiteSpace=wrap;html=1;" parent="1" vertex="1">
                    <mxGeometry x="230" y="510" width="140" height="70" as="geometry"/>
                </mxCell>
                <mxCell id="39" value="Extends" style="endArrow=block;endSize=16;endFill=0;html=1;" parent="1" source="33" target="38" edge="1">
                    <mxGeometry width="160" relative="1" as="geometry">
                        <mxPoint x="184" y="490" as="sourcePoint"/>
                        <mxPoint x="344" y="490" as="targetPoint"/>
                    </mxGeometry>
                </mxCell>
            </root>
        </mxGraphModel>
    </diagram>
</mxfile>